<svg width="1440" height="1024" viewBox="0 0 1440 1024" fill="none" xmlns="http://www.w3.org/2000/svg">
<path d="M273.297 283.561H254.37V455H229.957V283.561H211.03V263.262H273.297V283.561ZM304.964 456.646C301.672 456.646 298.381 456.097 295.089 455C291.797 453.903 288.78 452.257 286.037 450.063C283.477 447.685 281.374 444.668 279.728 441.011C278.265 437.353 277.534 433.056 277.534 428.118V290.144C277.534 285.206 278.265 280.909 279.728 277.252C281.374 273.594 283.477 270.668 286.037 268.474C288.78 266.097 291.797 264.359 295.089 263.262C298.381 262.165 301.672 261.616 304.964 261.616H309.901C313.376 261.616 316.759 262.165 320.051 263.262C323.342 264.359 326.268 266.097 328.828 268.474C331.388 270.668 333.4 273.594 334.863 277.252C336.509 280.909 337.332 285.206 337.332 290.144V428.118C337.332 433.056 336.509 437.353 334.863 441.011C333.4 444.668 331.388 447.685 328.828 450.063C326.268 452.257 323.342 453.903 320.051 455C316.759 456.097 313.376 456.646 309.901 456.646H304.964ZM306.884 281.915C303.592 281.915 301.947 285.846 301.947 293.71V424.552C301.947 432.416 303.592 436.347 306.884 436.347H307.981C311.273 436.347 312.919 432.416 312.919 424.552V293.71C312.919 285.846 311.273 281.915 307.981 281.915H306.884ZM403.752 283.561H384.825V455H360.412V283.561H341.485V263.262H403.752V283.561ZM435.331 405.625H422.164L418.324 455H397.203L413.935 263.262H444.931L462.761 455H439.445L435.331 405.625ZM423.81 387.247H433.959L429.296 329.918H428.473L423.81 387.247ZM491.608 263.262V436.896H514.101V455H467.195V263.262H491.608ZM255 513.262C262.68 513.262 269.081 515.731 274.201 520.668C279.504 525.606 282.156 532.555 282.156 541.515V604.056C282.156 612.834 279.596 618.96 274.476 622.435C269.538 625.909 263.229 627.647 255.549 627.647H246.771V705H222.358V513.262H255ZM257.743 545.356C257.743 537.492 256.006 533.561 252.531 533.561H246.771V607.348H253.08C256.189 607.348 257.743 603.691 257.743 596.376V545.356ZM349.392 590.616C349.392 596.467 348.478 600.856 346.649 603.782C344.821 606.525 342.535 608.354 339.792 609.268C342.535 610 344.821 611.828 346.649 614.754C348.478 617.497 349.392 621.795 349.392 627.647V669.066C349.392 682.233 349.85 691.468 350.764 696.771C351.861 701.891 352.593 704.634 352.958 705H328.545C327.082 702.806 326.077 698.874 325.528 693.205C325.162 687.536 324.979 679.49 324.979 669.066V629.841C324.979 622.16 323.425 618.32 320.316 618.32H314.007V705H289.594V513.262H322.236C329.917 513.262 336.317 515.731 341.438 520.668C346.741 525.606 349.392 532.555 349.392 541.515V590.616ZM320.316 600.216C323.425 600.216 324.979 596.559 324.979 589.244V545.356C324.979 537.492 323.242 533.561 319.768 533.561H314.007V600.216H320.316ZM383.119 513.262V705H358.706V513.262H383.119ZM449.003 705H388.931V686.896L421.847 531.366H394.142V513.262H446.26V531.366L413.344 686.896H449.003V705ZM479.286 533.561V600.216H497.664V618.32H479.286V684.702H504.521V705H454.873V513.262H502.601V533.561H479.286Z" fill="#1F1F1F"/>
<path d="M602.016 706.756C594.503 706.756 586.99 705.504 579.477 703C571.964 700.496 565.077 696.739 558.817 691.731C552.973 686.304 548.173 679.418 544.417 671.07C541.078 662.722 539.408 652.913 539.408 641.644V521.436H595.129V633.505C595.129 651.453 598.886 660.426 606.399 660.426H608.903C616.416 660.426 620.173 651.453 620.173 633.505V499.523C620.173 489.506 619.129 482.619 617.042 478.863C615.373 474.689 612.66 472.602 608.903 472.602H606.399C599.303 472.602 595.547 479.906 595.129 494.515V503.906H539.408V265.369H675.268L670.259 311.699H595.129V447.559C599.721 440.463 605.147 435.246 611.407 431.906C617.668 428.15 623.72 426.272 629.564 426.272H633.32C644.172 426.272 653.981 431.489 662.746 441.924C671.511 451.941 675.894 468.428 675.894 491.384V641.644C675.894 652.913 674.016 662.722 670.259 671.07C666.92 679.418 662.329 686.304 656.485 691.731C650.642 696.739 643.964 700.496 636.451 703C628.938 705.504 621.216 706.756 613.286 706.756H602.016ZM748.607 265.369V661.679H799.946V703H692.886V265.369H748.607ZM872.273 465.089V391.211H914.847V465.089H978.707V502.654H914.847V576.531H872.273V502.654H809.665V465.089H872.273Z" fill="#1F1F1F"/>
<path d="M857.347 262.684V317.1H848.421V279.831L831.823 317.1H825.637L808.961 279.831V317.1H800.035V262.684H809.665L828.769 305.355L847.795 262.684H857.347ZM878.004 262.684V317.1H869.078V262.684H878.004ZM947.035 262.684V317.1H938.109V279.831L921.51 317.1H915.325L898.648 279.831V317.1H889.723V262.684H899.353L918.457 305.355L937.483 262.684H947.035ZM967.692 269.888V285.86H986.483V293.141H967.692V309.818H988.831V317.1H958.766V262.606H988.831V269.888H967.692ZM1023.92 304.964C1028.93 300.632 1032.87 297.082 1035.74 294.316C1038.67 291.497 1041.09 288.574 1043.03 285.547C1044.96 282.519 1045.92 279.492 1045.92 276.464C1045.92 273.333 1045.17 270.879 1043.65 269.105C1042.19 267.33 1039.87 266.443 1036.68 266.443C1033.6 266.443 1031.2 267.434 1029.48 269.418C1027.81 271.349 1026.92 273.959 1026.82 277.247H1018.21C1018.36 271.297 1020.14 266.756 1023.53 263.624C1026.98 260.44 1031.33 258.848 1036.61 258.848C1042.3 258.848 1046.73 260.414 1049.92 263.546C1053.15 266.678 1054.77 270.853 1054.77 276.073C1054.77 279.831 1053.8 283.459 1051.87 286.956C1049.99 290.401 1047.72 293.507 1045.06 296.273C1042.45 298.987 1039.11 302.145 1035.04 305.747L1031.52 308.879H1056.34V316.317H1018.28V309.818L1023.92 304.964ZM1100.98 267.695H1074.75V283.276C1075.84 281.815 1077.46 280.588 1079.6 279.596C1081.79 278.604 1084.12 278.109 1086.57 278.109C1090.95 278.109 1094.5 279.048 1097.22 280.927C1099.98 282.806 1101.94 285.181 1103.09 288.052C1104.29 290.923 1104.89 293.95 1104.89 297.134C1104.89 300.997 1104.13 304.442 1102.62 307.469C1101.16 310.445 1098.94 312.793 1095.96 314.516C1093.04 316.238 1089.44 317.1 1085.16 317.1C1079.47 317.1 1074.9 315.69 1071.46 312.872C1068.01 310.053 1065.95 306.321 1065.27 301.675H1073.96C1074.54 304.129 1075.82 306.086 1077.8 307.548C1079.78 308.957 1082.26 309.662 1085.24 309.662C1088.94 309.662 1091.71 308.539 1093.54 306.295C1095.42 304.05 1096.36 301.075 1096.36 297.369C1096.36 293.611 1095.42 290.74 1093.54 288.757C1091.66 286.721 1088.89 285.703 1085.24 285.703C1082.68 285.703 1080.51 286.356 1078.74 287.661C1077.02 288.913 1075.76 290.636 1074.98 292.828H1066.53V259.866H1100.98V267.695ZM1132.42 295.568L1152.31 317.1H1140.25L1124.28 298.544V317.1H1115.36V259.161H1124.28V292.828L1139.94 273.959H1152.31L1132.42 295.568Z" fill="#D35C39"/>
<path d="M213.644 216.506C213.644 210.369 215.058 204.865 217.886 199.991C220.773 195.118 224.654 191.328 229.527 188.621C234.46 185.854 239.844 184.47 245.68 184.47C252.358 184.47 258.284 186.124 263.458 189.433C268.692 192.682 272.482 197.314 274.828 203.33H262.465C260.841 200.022 258.585 197.555 255.697 195.931C252.809 194.306 249.47 193.494 245.68 193.494C241.529 193.494 237.829 194.427 234.58 196.292C231.332 198.157 228.775 200.834 226.91 204.323C225.105 207.812 224.203 211.873 224.203 216.506C224.203 221.138 225.105 225.199 226.91 228.688C228.775 232.178 231.332 234.885 234.58 236.81C237.829 238.675 241.529 239.608 245.68 239.608C249.47 239.608 252.809 238.795 255.697 237.171C258.585 235.547 260.841 233.08 262.465 229.771H274.828C272.482 235.787 268.692 240.42 263.458 243.668C258.284 246.917 252.358 248.541 245.68 248.541C239.784 248.541 234.4 247.188 229.527 244.481C224.654 241.713 220.773 237.893 217.886 233.02C215.058 228.147 213.644 222.642 213.644 216.506ZM336.954 185.282V248H326.666V220.567H297.157V248H286.87V185.282H297.157V212.174H326.666V185.282H336.954ZM379.104 248.632C373.268 248.632 367.884 247.278 362.95 244.571C358.077 241.803 354.197 237.983 351.309 233.11C348.482 228.177 347.068 222.642 347.068 216.506C347.068 210.369 348.482 204.865 351.309 199.991C354.197 195.118 358.077 191.328 362.95 188.621C367.884 185.854 373.268 184.47 379.104 184.47C384.999 184.47 390.384 185.854 395.257 188.621C400.19 191.328 404.07 195.118 406.898 199.991C409.726 204.865 411.139 210.369 411.139 216.506C411.139 222.642 409.726 228.177 406.898 233.11C404.07 237.983 400.19 241.803 395.257 244.571C390.384 247.278 384.999 248.632 379.104 248.632ZM379.104 239.698C383.255 239.698 386.955 238.765 390.203 236.9C393.452 234.975 395.979 232.268 397.784 228.779C399.649 225.229 400.581 221.138 400.581 216.506C400.581 211.873 399.649 207.812 397.784 204.323C395.979 200.834 393.452 198.157 390.203 196.292C386.955 194.427 383.255 193.494 379.104 193.494C374.953 193.494 371.253 194.427 368.004 196.292C364.755 198.157 362.198 200.834 360.333 204.323C358.529 207.812 357.626 211.873 357.626 216.506C357.626 221.138 358.529 225.229 360.333 228.779C362.198 232.268 364.755 234.975 368.004 236.9C371.253 238.765 374.953 239.698 379.104 239.698ZM453.84 248L439.401 222.913H431.55V248H421.263V185.282H442.921C447.734 185.282 451.794 186.124 455.103 187.809C458.472 189.493 460.969 191.749 462.593 194.577C464.278 197.405 465.12 200.563 465.12 204.052C465.12 208.143 463.917 211.873 461.51 215.242C459.164 218.551 455.524 220.807 450.591 222.01L466.113 248H453.84ZM431.55 214.701H442.921C446.771 214.701 449.659 213.738 451.584 211.813C453.569 209.888 454.562 207.301 454.562 204.052C454.562 200.804 453.599 198.277 451.674 196.472C449.749 194.607 446.831 193.675 442.921 193.675H431.55V214.701ZM488.568 193.584V211.994H510.226V220.386H488.568V239.608H512.933V248H478.281V185.192H512.933V193.584H488.568ZM554.211 248.632C548.375 248.632 542.991 247.278 538.058 244.571C533.185 241.803 529.304 237.983 526.417 233.11C523.589 228.177 522.175 222.642 522.175 216.506C522.175 210.369 523.589 204.865 526.417 199.991C529.304 195.118 533.185 191.328 538.058 188.621C542.991 185.854 548.375 184.47 554.211 184.47C560.107 184.47 565.491 185.854 570.364 188.621C575.298 191.328 579.178 195.118 582.005 199.991C584.833 204.865 586.247 210.369 586.247 216.506C586.247 222.642 584.833 228.177 582.005 233.11C579.178 237.983 575.298 241.803 570.364 244.571C565.491 247.278 560.107 248.632 554.211 248.632ZM554.211 239.698C558.362 239.698 562.062 238.765 565.311 236.9C568.559 234.975 571.086 232.268 572.891 228.779C574.756 225.229 575.689 221.138 575.689 216.506C575.689 211.873 574.756 207.812 572.891 204.323C571.086 200.834 568.559 198.157 565.311 196.292C562.062 194.427 558.362 193.494 554.211 193.494C550.06 193.494 546.36 194.427 543.111 196.292C539.863 198.157 537.306 200.834 535.441 204.323C533.636 207.812 532.734 211.873 532.734 216.506C532.734 221.138 533.636 225.229 535.441 228.779C537.306 232.268 539.863 234.975 543.111 236.9C546.36 238.765 550.06 239.698 554.211 239.698ZM647.898 248H637.611L606.658 201.165V248H596.37V185.192H606.658L637.611 231.937V185.192H647.898V248ZM671.695 185.282V248H661.408V185.282H671.695ZM725.72 185.282V193.675H709.025V248H698.738V193.675H681.953V185.282H725.72ZM746.426 193.584V211.994H768.084V220.386H746.426V239.608H770.792V248H736.139V185.192H770.792V193.584H746.426Z" fill="#D35C39"/>
<path d="M1026.33 464.157V493.768C1026.33 497.433 1025.2 500.329 1022.96 502.456C1020.75 504.584 1017.83 505.648 1014.21 505.648C1010.58 505.648 1007.65 504.584 1005.4 502.456C1003.2 500.329 1002.09 497.433 1002.09 493.768H1008.89C1008.93 495.581 1009.38 497.019 1010.25 498.083C1011.16 499.147 1012.48 499.679 1014.21 499.679C1015.94 499.679 1017.26 499.147 1018.17 498.083C1019.08 496.979 1019.53 495.541 1019.53 493.768V464.157H1026.33ZM1062.05 496.842H1044.85L1041.9 505.234H1034.86L1049.58 464.097H1057.38L1072.1 505.234H1065.01L1062.05 496.842ZM1060.16 491.345L1053.48 472.254L1046.74 491.345H1060.16ZM1121.76 464.157V505.234H1115.03V477.101L1102.5 505.234H1097.83L1085.24 477.101V505.234H1078.5V464.157H1085.77L1100.19 496.369L1114.55 464.157H1121.76ZM1185.53 452.861H1157.72V469.378C1158.89 467.829 1160.6 466.529 1162.87 465.477C1165.19 464.426 1167.66 463.9 1170.26 463.9C1174.91 463.9 1178.67 464.896 1181.55 466.888C1184.48 468.88 1186.55 471.398 1187.77 474.441C1189.04 477.485 1189.68 480.694 1189.68 484.069C1189.68 488.164 1188.88 491.816 1187.27 495.025C1185.72 498.179 1183.37 500.669 1180.22 502.495C1177.12 504.321 1173.3 505.234 1168.76 505.234C1162.73 505.234 1157.89 503.74 1154.24 500.752C1150.59 497.764 1148.4 493.808 1147.68 488.883H1156.89C1157.5 491.484 1158.86 493.559 1160.96 495.108C1163.06 496.602 1165.69 497.349 1168.85 497.349C1172.78 497.349 1175.71 496.16 1177.64 493.78C1179.64 491.401 1180.63 488.247 1180.63 484.318C1180.63 480.334 1179.64 477.291 1177.64 475.188C1175.65 473.03 1172.72 471.951 1168.85 471.951C1166.14 471.951 1163.84 472.643 1161.96 474.026C1160.13 475.354 1158.8 477.18 1157.97 479.504H1149.01V444.561H1185.53V452.861ZM1218.87 482.409L1239.95 505.234H1227.17L1210.24 485.563V505.234H1200.77V443.814H1210.24V479.504L1226.84 459.501H1239.95L1218.87 482.409Z" fill="#D35C39"/>
<path d="M249.114 767.178C252.34 767.754 255.077 769.454 257.324 772.277C259.57 775.1 260.694 778.297 260.694 781.869C260.694 784.923 259.887 787.688 258.274 790.165C256.719 792.585 254.443 794.515 251.447 795.955C248.451 797.338 244.966 798.029 240.991 798.029H216.967V737.969H239.867C243.958 737.969 247.472 738.661 250.41 740.043C253.348 741.426 255.566 743.298 257.064 745.66C258.562 747.965 259.311 750.557 259.311 753.438C259.311 756.895 258.389 759.775 256.546 762.08C254.702 764.384 252.225 766.084 249.114 767.178ZM226.818 763.203H239.003C242.229 763.203 244.736 762.483 246.521 761.043C248.365 759.545 249.287 757.413 249.287 754.648C249.287 751.94 248.365 749.837 246.521 748.339C244.736 746.784 242.229 746.006 239.003 746.006H226.818V763.203ZM240.127 789.992C243.468 789.992 246.089 789.186 247.991 787.573C249.892 785.96 250.842 783.713 250.842 780.832C250.842 777.894 249.834 775.561 247.818 773.832C245.801 772.104 243.122 771.24 239.781 771.24H226.818V789.992H240.127ZM307.608 785.758H282.461L278.14 798.029H267.856L289.374 737.883H300.781L322.299 798.029H311.929L307.608 785.758ZM304.843 777.721L295.078 749.808L285.226 777.721H304.843ZM381 798.029H371.148L341.507 753.179V798.029H331.655V737.883H341.507L371.148 782.647V737.883H381V798.029ZM413.553 737.969C419.948 737.969 425.537 739.208 430.318 741.685C435.158 744.105 438.874 747.619 441.466 752.228C444.116 756.779 445.441 762.108 445.441 768.215C445.441 774.322 444.116 779.622 441.466 784.116C438.874 788.61 435.158 792.066 430.318 794.486C425.537 796.848 419.948 798.029 413.553 798.029H393.937V737.969H413.553ZM413.553 789.992C420.582 789.992 425.969 788.091 429.713 784.289C433.458 780.487 435.331 775.129 435.331 768.215C435.331 761.244 433.458 755.8 429.713 751.882C425.969 747.965 420.582 746.006 413.553 746.006H403.788V789.992H413.553ZM505.048 798.634C499.459 798.634 494.303 797.338 489.579 794.745C484.913 792.095 481.197 788.437 478.431 783.77C475.723 779.046 474.37 773.746 474.37 767.87C474.37 761.993 475.723 756.722 478.431 752.055C481.197 747.389 484.913 743.759 489.579 741.167C494.303 738.517 499.459 737.191 505.048 737.191C510.694 737.191 515.85 738.517 520.516 741.167C525.241 743.759 528.957 747.389 531.664 752.055C534.372 756.722 535.726 761.993 535.726 767.87C535.726 773.746 534.372 779.046 531.664 783.77C528.957 788.437 525.241 792.095 520.516 794.745C515.85 797.338 510.694 798.634 505.048 798.634ZM505.048 790.079C509.023 790.079 512.566 789.186 515.677 787.4C518.788 785.556 521.208 782.964 522.936 779.622C524.722 776.223 525.615 772.306 525.615 767.87C525.615 763.434 524.722 759.545 522.936 756.203C521.208 752.862 518.788 750.298 515.677 748.512C512.566 746.726 509.023 745.833 505.048 745.833C501.073 745.833 497.529 746.726 494.418 748.512C491.307 750.298 488.859 752.862 487.073 756.203C485.345 759.545 484.48 763.434 484.48 767.87C484.48 772.306 485.345 776.223 487.073 779.622C488.859 782.964 491.307 785.556 494.418 787.4C497.529 789.186 501.073 790.079 505.048 790.079ZM580.765 737.969V746.006H555.272V763.722H575.148V771.758H555.272V798.029H545.42V737.969H580.765ZM644.49 767.178C647.716 767.754 650.453 769.454 652.7 772.277C654.947 775.1 656.07 778.297 656.07 781.869C656.07 784.923 655.264 787.688 653.65 790.165C652.095 792.585 649.819 794.515 646.823 795.955C643.828 797.338 640.342 798.029 636.367 798.029H612.343V737.969H635.244C639.334 737.969 642.848 738.661 645.786 740.043C648.725 741.426 650.943 743.298 652.441 745.66C653.939 747.965 654.687 750.557 654.687 753.438C654.687 756.895 653.766 759.775 651.922 762.08C650.079 764.384 647.601 766.084 644.49 767.178ZM622.195 763.203H634.379C637.606 763.203 640.112 762.483 641.898 761.043C643.741 759.545 644.663 757.413 644.663 754.648C644.663 751.94 643.741 749.837 641.898 748.339C640.112 746.784 637.606 746.006 634.379 746.006H622.195V763.203ZM635.503 789.992C638.844 789.992 641.466 789.186 643.367 787.573C645.268 785.96 646.219 783.713 646.219 780.832C646.219 777.894 645.21 775.561 643.194 773.832C641.178 772.104 638.499 771.24 635.157 771.24H622.195V789.992H635.503ZM697.972 798.029L684.146 774.005H676.627V798.029H666.776V737.969H687.516C692.125 737.969 696.014 738.776 699.182 740.389C702.409 742.002 704.799 744.162 706.355 746.87C707.968 749.578 708.775 752.603 708.775 755.944C708.775 759.862 707.622 763.434 705.318 766.66C703.071 769.828 699.586 771.989 694.861 773.141L709.725 798.029H697.972ZM676.627 766.141H687.516C691.203 766.141 693.968 765.22 695.812 763.376C697.713 761.532 698.664 759.055 698.664 755.944C698.664 752.833 697.742 750.413 695.898 748.685C694.055 746.899 691.261 746.006 687.516 746.006H676.627V766.141ZM757.586 785.758H732.439L728.118 798.029H717.834L739.352 737.883H750.759L772.277 798.029H761.907L757.586 785.758ZM754.821 777.721L745.056 749.808L735.204 777.721H754.821ZM829.595 737.969V798.029H819.743V771.758H791.485V798.029H781.633V737.969H791.485V763.722H819.743V737.969H829.595ZM905.822 737.969V798.029H895.97V756.895L877.65 798.029H870.823L852.416 756.895V798.029H842.564V737.969H853.194L874.279 785.067L895.279 737.969H905.822ZM954.979 785.758H929.832L925.511 798.029H915.227L936.745 737.883H948.152L969.67 798.029H959.3L954.979 785.758ZM952.214 777.721L942.448 749.808L932.597 777.721H952.214ZM1000.01 750.586C1000.35 745.228 1002.4 741.051 1006.14 738.056C1009.94 735.06 1014.78 733.562 1020.66 733.562C1024.69 733.562 1028.18 734.282 1031.12 735.722C1034.05 737.163 1036.27 739.121 1037.77 741.599C1039.27 744.076 1040.02 746.87 1040.02 749.981C1040.02 753.553 1039.07 756.607 1037.16 759.141C1035.26 761.676 1032.99 763.376 1030.34 764.24V764.586C1033.74 765.623 1036.39 767.524 1038.29 770.289C1040.19 772.997 1041.14 776.483 1041.14 780.746C1041.14 784.145 1040.36 787.17 1038.81 789.82C1037.25 792.47 1034.95 794.573 1031.89 796.128C1028.84 797.626 1025.18 798.375 1020.92 798.375C1014.7 798.375 1009.57 796.791 1005.54 793.622C1001.56 790.396 999.429 785.787 999.141 779.795H1008.65C1008.88 782.849 1010.06 785.355 1012.19 787.314C1014.32 789.215 1017.2 790.165 1020.83 790.165C1024.35 790.165 1027.05 789.215 1028.95 787.314C1030.86 785.355 1031.81 782.849 1031.81 779.795C1031.81 775.762 1030.51 772.911 1027.92 771.24C1025.38 769.512 1021.47 768.647 1016.17 768.647H1013.92V760.524H1016.25C1020.92 760.467 1024.46 759.689 1026.88 758.191C1029.36 756.693 1030.6 754.331 1030.6 751.105C1030.6 748.339 1029.7 746.15 1027.92 744.537C1026.13 742.866 1023.6 742.031 1020.31 742.031C1017.09 742.031 1014.58 742.866 1012.79 744.537C1011.01 746.15 1009.94 748.166 1009.6 750.586H1000.01ZM1051.49 765.709C1051.49 755.742 1053.16 747.965 1056.5 742.377C1059.9 736.731 1065.72 733.908 1073.96 733.908C1082.2 733.908 1087.99 736.731 1091.33 742.377C1094.73 747.965 1096.43 755.742 1096.43 765.709C1096.43 775.791 1094.73 783.684 1091.33 789.388C1087.99 795.033 1082.2 797.856 1073.96 797.856C1065.72 797.856 1059.9 795.033 1056.5 789.388C1053.16 783.684 1051.49 775.791 1051.49 765.709ZM1086.75 765.709C1086.75 761.043 1086.43 757.096 1085.8 753.87C1085.22 750.644 1084.01 748.022 1082.17 746.006C1080.32 743.932 1077.59 742.895 1073.96 742.895C1070.33 742.895 1067.59 743.932 1065.75 746.006C1063.9 748.022 1062.66 750.644 1062.03 753.87C1061.46 757.096 1061.17 761.043 1061.17 765.709C1061.17 770.549 1061.46 774.61 1062.03 777.894C1062.61 781.178 1063.82 783.828 1065.66 785.844C1067.56 787.861 1070.33 788.869 1073.96 788.869C1077.59 788.869 1080.32 787.861 1082.17 785.844C1084.07 783.828 1085.31 781.178 1085.88 777.894C1086.46 774.61 1086.75 770.549 1086.75 765.709ZM1126.98 774.265L1148.93 798.029H1135.63L1118 777.548V798.029H1108.15V734.08H1118V771.24L1135.28 750.413H1148.93L1126.98 774.265Z" fill="#D35C39"/>
<path d="M251.318 841.931L235.407 884.301H227.36L211.387 841.931H218.825L231.383 877.168L244.003 841.931H251.318ZM282.674 875.644H264.933L261.885 884.301H254.631L269.811 841.87H277.858L293.038 884.301H285.722L282.674 875.644ZM280.723 869.974L273.834 850.283L266.884 869.974H280.723ZM306.588 878.692H320.914V884.301H299.638V841.931H306.588V878.692ZM346.051 884.728C342.109 884.728 338.471 883.813 335.139 881.984C331.847 880.115 329.225 877.534 327.275 874.242C325.364 870.909 324.409 867.17 324.409 863.025C324.409 858.879 325.364 855.16 327.275 851.868C329.225 848.576 331.847 846.016 335.139 844.187C338.471 842.317 342.109 841.383 346.051 841.383C350.034 841.383 353.672 842.317 356.964 844.187C360.296 846.016 362.918 848.576 364.828 851.868C366.738 855.16 367.693 858.879 367.693 863.025C367.693 867.17 366.738 870.909 364.828 874.242C362.918 877.534 360.296 880.115 356.964 881.984C353.672 883.813 350.034 884.728 346.051 884.728ZM346.051 878.692C348.856 878.692 351.355 878.062 353.55 876.802C355.744 875.502 357.451 873.673 358.671 871.316C359.931 868.918 360.56 866.154 360.56 863.025C360.56 859.895 359.931 857.152 358.671 854.795C357.451 852.437 355.744 850.629 353.55 849.369C351.355 848.109 348.856 847.479 346.051 847.479C343.247 847.479 340.747 848.109 338.553 849.369C336.358 850.629 334.631 852.437 333.371 854.795C332.152 857.152 331.542 859.895 331.542 863.025C331.542 866.154 332.152 868.918 333.371 871.316C334.631 873.673 336.358 875.502 338.553 876.802C340.747 878.062 343.247 878.692 346.051 878.692ZM396.54 884.301L386.786 867.353H381.482V884.301H374.532V841.931H389.163C392.415 841.931 395.158 842.5 397.393 843.638C399.669 844.776 401.356 846.3 402.453 848.211C403.591 850.121 404.16 852.254 404.16 854.612C404.16 857.375 403.347 859.895 401.722 862.171C400.137 864.406 397.678 865.931 394.345 866.743L404.831 884.301H396.54ZM381.482 861.805H389.163C391.764 861.805 393.715 861.155 395.016 859.855C396.357 858.554 397.027 856.806 397.027 854.612C397.027 852.417 396.377 850.71 395.077 849.491C393.776 848.231 391.805 847.601 389.163 847.601H381.482V861.805ZM438.594 875.644H420.854L417.806 884.301H410.551L425.731 841.87H433.778L448.958 884.301H441.642L438.594 875.644ZM436.644 869.974L429.755 850.283L422.805 869.974H436.644ZM490.368 884.301H483.418L462.508 852.661V884.301H455.558V841.87H462.508L483.418 873.449V841.87H490.368V884.301ZM526.867 841.931V847.601H515.589V884.301H508.639V847.601H497.3V841.931H526.867ZM583.589 836.701C582.966 834.094 581.833 832.139 580.189 830.836C578.546 829.532 576.251 828.881 573.304 828.881C568.828 828.881 565.484 830.609 563.274 834.066C561.064 837.466 559.903 843.132 559.789 851.066C561.263 848.572 563.416 846.646 566.249 845.286C569.083 843.926 572.143 843.246 575.429 843.246C579.169 843.246 582.456 844.067 585.289 845.711C588.179 847.297 590.418 849.621 592.004 852.681C593.648 855.741 594.469 859.396 594.469 863.646C594.469 867.612 593.676 871.154 592.089 874.271C590.559 877.387 588.264 879.852 585.204 881.666C582.144 883.422 578.461 884.301 574.154 884.301C568.318 884.301 563.728 883.026 560.384 880.476C557.098 877.869 554.774 874.214 553.414 869.511C552.111 864.807 551.459 858.942 551.459 851.916C551.459 831.176 558.769 820.806 573.389 820.806C579.056 820.806 583.504 822.336 586.734 825.396C590.021 828.456 591.948 832.224 592.514 836.701H583.589ZM573.304 851.406C569.848 851.406 566.901 852.454 564.464 854.551C562.084 856.591 560.894 859.566 560.894 863.476C560.894 867.386 561.999 870.502 564.209 872.826C566.476 875.092 569.621 876.226 573.644 876.226C577.214 876.226 580.019 875.121 582.059 872.911C584.156 870.701 585.204 867.754 585.204 864.071C585.204 860.217 584.184 857.157 582.144 854.891C580.161 852.567 577.214 851.406 573.304 851.406ZM624.611 860.926L646.201 884.301H633.111L615.771 864.156V884.301H606.081V821.401H615.771V857.951L632.771 837.466H646.201L624.611 860.926Z" fill="#D35C39"/>
<path d="M490.959 141.607V175H485.482V152.13L475.296 175H471.5L461.266 152.13V175H455.789V141.607H461.698L473.422 167.793L485.097 141.607H490.959ZM503.588 141.607V162.892C503.588 165.423 504.244 167.328 505.558 168.61C506.903 169.891 508.761 170.532 511.131 170.532C513.533 170.532 515.391 169.891 516.705 168.61C518.05 167.328 518.723 165.423 518.723 162.892V141.607H524.2V162.796C524.2 165.519 523.607 167.825 522.422 169.715C521.237 171.605 519.651 173.014 517.665 173.943C515.68 174.872 513.485 175.336 511.083 175.336C508.681 175.336 506.486 174.872 504.501 173.943C502.547 173.014 500.993 171.605 499.84 169.715C498.687 167.825 498.11 165.519 498.11 162.796V141.607H503.588ZM542.238 141.607C545.794 141.607 548.901 142.296 551.559 143.673C554.25 145.019 556.316 146.972 557.757 149.535C559.231 152.065 559.968 155.028 559.968 158.424C559.968 161.819 559.231 164.766 557.757 167.264C556.316 169.763 554.25 171.685 551.559 173.03C548.901 174.343 545.794 175 542.238 175H531.332V141.607H542.238ZM542.238 170.532C546.146 170.532 549.141 169.475 551.223 167.36C553.305 165.246 554.346 162.267 554.346 158.424C554.346 154.548 553.305 151.521 551.223 149.343C549.141 147.165 546.146 146.076 542.238 146.076H536.809V170.532H542.238ZM592.062 141.607V175H586.585V160.394H570.874V175H565.396V141.607H570.874V155.925H586.585V141.607H592.062ZM616.618 175L608.931 161.643H604.751V175H599.273V141.607H610.805C613.367 141.607 615.529 142.056 617.291 142.953C619.085 143.849 620.414 145.051 621.279 146.556C622.176 148.062 622.624 149.743 622.624 151.601C622.624 153.779 621.984 155.765 620.702 157.559C619.453 159.321 617.515 160.522 614.889 161.162L623.153 175H616.618ZM604.751 157.271H610.805C612.855 157.271 614.392 156.758 615.417 155.733C616.474 154.708 617.003 153.331 617.003 151.601C617.003 149.871 616.49 148.526 615.465 147.565C614.44 146.572 612.887 146.076 610.805 146.076H604.751V157.271ZM649.763 168.177H635.781L633.379 175H627.661L639.625 141.559H645.967L657.931 175H652.165L649.763 168.177ZM648.225 163.709L642.796 148.19L637.319 163.709H648.225ZM675.258 144.256C675.482 140.784 676.808 138.077 679.234 136.136C681.698 134.195 684.834 133.224 688.642 133.224C691.256 133.224 693.514 133.691 695.418 134.624C697.322 135.557 698.76 136.827 699.73 138.432C700.701 140.037 701.186 141.848 701.186 143.864C701.186 146.179 700.57 148.157 699.338 149.8C698.106 151.443 696.632 152.544 694.914 153.104V153.328C697.117 154 698.834 155.232 700.066 157.024C701.298 158.779 701.914 161.037 701.914 163.8C701.914 166.003 701.41 167.963 700.402 169.68C699.394 171.397 697.901 172.76 695.922 173.768C693.944 174.739 691.573 175.224 688.81 175.224C684.778 175.224 681.456 174.197 678.842 172.144C676.266 170.053 674.885 167.067 674.698 163.184H680.858C681.008 165.163 681.773 166.787 683.154 168.056C684.536 169.288 686.402 169.904 688.754 169.904C691.032 169.904 692.786 169.288 694.018 168.056C695.25 166.787 695.866 165.163 695.866 163.184C695.866 160.571 695.026 158.723 693.346 157.64C691.704 156.52 689.165 155.96 685.73 155.96H684.274V150.696H685.786C688.81 150.659 691.106 150.155 692.674 149.184C694.28 148.213 695.082 146.683 695.082 144.592C695.082 142.8 694.504 141.381 693.346 140.336C692.189 139.253 690.546 138.712 688.418 138.712C686.328 138.712 684.704 139.253 683.546 140.336C682.389 141.381 681.698 142.688 681.474 144.256H675.258ZM716.572 163.912C716.946 165.779 717.748 167.197 718.98 168.168C720.212 169.139 721.874 169.624 723.964 169.624C726.615 169.624 728.556 168.579 729.788 166.488C731.02 164.397 731.636 160.832 731.636 155.792C730.74 157.061 729.471 158.051 727.828 158.76C726.223 159.432 724.468 159.768 722.564 159.768C720.138 159.768 717.935 159.283 715.956 158.312C713.978 157.304 712.41 155.829 711.252 153.888C710.132 151.909 709.572 149.52 709.572 146.72C709.572 142.613 710.767 139.347 713.156 136.92C715.583 134.456 718.906 133.224 723.124 133.224C728.202 133.224 731.804 134.923 733.932 138.32C736.098 141.68 737.18 146.851 737.18 153.832C737.18 158.648 736.77 162.587 735.948 165.648C735.164 168.709 733.783 171.024 731.804 172.592C729.826 174.16 727.082 174.944 723.572 174.944C719.578 174.944 716.498 173.899 714.332 171.808C712.167 169.717 710.954 167.085 710.692 163.912H716.572ZM723.684 154.392C725.924 154.392 727.679 153.701 728.948 152.32C730.255 150.901 730.908 149.035 730.908 146.72C730.908 144.144 730.218 142.147 728.836 140.728C727.492 139.272 725.644 138.544 723.292 138.544C720.94 138.544 719.074 139.291 717.692 140.784C716.348 142.24 715.676 144.163 715.676 146.552C715.676 148.829 716.33 150.715 717.636 152.208C718.98 153.664 720.996 154.392 723.684 154.392ZM757.215 159.6L771.439 175H762.815L751.391 161.728V175H745.007V133.56H751.391V157.64L762.591 144.144H771.439L757.215 159.6Z" fill="#D35C39"/>
<path d="M846.398 703L837.556 687.637H832.748V703H826.448V664.592H839.711C842.659 664.592 845.146 665.108 847.172 666.139C849.235 667.171 850.764 668.552 851.759 670.284C852.79 672.015 853.306 673.95 853.306 676.087C853.306 678.592 852.569 680.876 851.096 682.939C849.659 684.966 847.43 686.347 844.409 687.084L853.914 703H846.398ZM832.748 682.608H839.711C842.069 682.608 843.838 682.018 845.017 680.839C846.232 679.66 846.84 678.076 846.84 676.087C846.84 674.097 846.251 672.55 845.072 671.444C843.893 670.302 842.106 669.731 839.711 669.731H832.748V682.608ZM867.666 669.676V680.95H880.929V686.089H867.666V697.86H882.587V703H861.366V664.536H882.587V669.676H867.666ZM921.902 703H915.602L896.647 674.318V703H890.347V664.536H896.647L915.602 693.163V664.536H921.902V703ZM936.476 669.676V680.95H949.739V686.089H936.476V697.86H951.397V703H930.175V664.536H951.397V669.676H936.476ZM986.954 675.644C985.959 673.729 984.578 672.292 982.809 671.334C981.041 670.339 978.996 669.842 976.675 669.842C974.133 669.842 971.867 670.413 969.878 671.555C967.888 672.697 966.322 674.318 965.18 676.418C964.075 678.518 963.522 680.95 963.522 683.713C963.522 686.476 964.075 688.926 965.18 691.063C966.322 693.163 967.888 694.784 969.878 695.926C971.867 697.068 974.133 697.639 976.675 697.639C980.101 697.639 982.883 696.682 985.02 694.766C987.157 692.85 988.465 690.253 988.944 686.974H974.52V681.945H995.686V686.863C995.281 689.847 994.212 692.592 992.481 695.097C990.786 697.603 988.557 699.61 985.794 701.121C983.067 702.595 980.028 703.332 976.675 703.332C973.065 703.332 969.767 702.503 966.783 700.845C963.799 699.15 961.422 696.81 959.654 693.826C957.922 690.842 957.057 687.471 957.057 683.713C957.057 679.955 957.922 676.584 959.654 673.6C961.422 670.615 963.799 668.294 966.783 666.636C969.804 664.942 973.101 664.094 976.675 664.094C980.765 664.094 984.394 665.108 987.562 667.134C990.767 669.123 993.088 671.96 994.525 675.644H986.954ZM1025.06 695.153H1008.97L1006.21 703H999.634L1013.39 664.536H1020.69L1034.45 703H1027.82L1025.06 695.153ZM1023.29 690.013L1017.04 672.163L1010.74 690.013H1023.29ZM1052.98 664.592C1057.07 664.592 1060.64 665.384 1063.7 666.968C1066.79 668.515 1069.17 670.763 1070.83 673.71C1072.52 676.621 1073.37 680.029 1073.37 683.934C1073.37 687.839 1072.52 691.229 1070.83 694.103C1069.17 696.976 1066.79 699.187 1063.7 700.734C1060.64 702.245 1057.07 703 1052.98 703H1040.43V664.592H1052.98ZM1052.98 697.86C1057.47 697.86 1060.92 696.645 1063.31 694.213C1065.71 691.781 1066.9 688.355 1066.9 683.934C1066.9 679.476 1065.71 675.994 1063.31 673.489C1060.92 670.984 1057.47 669.731 1052.98 669.731H1046.73V697.86H1052.98ZM1085.91 669.676V680.95H1099.18V686.089H1085.91V697.86H1100.84V703H1079.61V664.536H1100.84V669.676H1085.91ZM1129.63 689.36C1135.26 684.491 1139.69 680.501 1142.92 677.392C1146.2 674.224 1148.93 670.939 1151.1 667.536C1153.27 664.133 1154.36 660.731 1154.36 657.328C1154.36 653.808 1153.51 651.051 1151.81 649.056C1150.16 647.061 1147.55 646.064 1143.97 646.064C1140.51 646.064 1137.81 647.179 1135.88 649.408C1134 651.579 1133 654.512 1132.89 658.208H1123.21C1123.38 651.52 1125.38 646.416 1129.19 642.896C1133.06 639.317 1137.96 637.528 1143.89 637.528C1150.28 637.528 1155.27 639.288 1158.85 642.808C1162.48 646.328 1164.3 651.021 1164.3 656.888C1164.3 661.112 1163.22 665.189 1161.05 669.12C1158.93 672.992 1156.38 676.483 1153.39 679.592C1150.46 682.643 1146.7 686.192 1142.13 690.24L1138.17 693.76H1166.06V702.12H1123.29V694.816L1129.63 689.36ZM1174.88 670.088C1174.88 659.939 1176.58 652.019 1179.98 646.328C1183.44 640.579 1189.37 637.704 1197.76 637.704C1206.14 637.704 1212.04 640.579 1215.44 646.328C1218.9 652.019 1220.64 659.939 1220.64 670.088C1220.64 680.355 1218.9 688.392 1215.44 694.2C1212.04 699.949 1206.14 702.824 1197.76 702.824C1189.37 702.824 1183.44 699.949 1179.98 694.2C1176.58 688.392 1174.88 680.355 1174.88 670.088ZM1210.78 670.088C1210.78 665.336 1210.46 661.317 1209.81 658.032C1209.22 654.747 1207.99 652.077 1206.12 650.024C1204.24 647.912 1201.45 646.856 1197.76 646.856C1194.06 646.856 1191.27 647.912 1189.4 650.024C1187.52 652.077 1186.26 654.747 1185.61 658.032C1185.02 661.317 1184.73 665.336 1184.73 670.088C1184.73 675.016 1185.02 679.152 1185.61 682.496C1186.2 685.84 1187.43 688.539 1189.31 690.592C1191.24 692.645 1194.06 693.672 1197.76 693.672C1201.45 693.672 1204.24 692.645 1206.12 690.592C1208.05 688.539 1209.31 685.84 1209.9 682.496C1210.49 679.152 1210.78 675.016 1210.78 670.088ZM1251.75 678.8L1274.11 703H1260.55L1242.6 682.144V703H1232.57V637.88H1242.6V675.72L1260.2 654.512H1274.11L1251.75 678.8Z" fill="#D35C39"/>
<path d="M1009.57 391.237V431.547H1002.96V413.915H983.99V431.547H977.378V391.237H983.99V408.521H1002.96V391.237H1009.57ZM1024.88 391.237V431.547H1018.27V391.237H1024.88ZM1046.85 431.953C1044.14 431.953 1041.7 431.489 1039.54 430.561C1037.37 429.594 1035.67 428.241 1034.44 426.501C1033.2 424.761 1032.58 422.731 1032.58 420.411H1039.66C1039.81 422.151 1040.49 423.582 1041.69 424.703C1042.92 425.824 1044.64 426.385 1046.85 426.385C1049.13 426.385 1050.91 425.844 1052.18 424.761C1053.46 423.64 1054.1 422.209 1054.1 420.469C1054.1 419.116 1053.69 418.014 1052.88 417.163C1052.11 416.312 1051.12 415.655 1049.92 415.191C1048.76 414.727 1047.14 414.224 1045.05 413.683C1042.42 412.987 1040.27 412.291 1038.61 411.595C1036.99 410.86 1035.6 409.739 1034.44 408.231C1033.28 406.723 1032.7 404.712 1032.7 402.199C1032.7 399.879 1033.28 397.849 1034.44 396.109C1035.6 394.369 1037.22 393.035 1039.31 392.107C1041.4 391.179 1043.81 390.715 1046.56 390.715C1050.46 390.715 1053.65 391.701 1056.13 393.673C1058.64 395.606 1060.03 398.274 1060.3 401.677H1053C1052.88 400.208 1052.18 398.951 1050.91 397.907C1049.63 396.863 1047.95 396.341 1045.86 396.341C1043.97 396.341 1042.42 396.824 1041.22 397.791C1040.02 398.758 1039.42 400.15 1039.42 401.967C1039.42 403.204 1039.79 404.229 1040.53 405.041C1041.3 405.814 1042.27 406.433 1043.43 406.897C1044.59 407.361 1046.17 407.864 1048.18 408.405C1050.85 409.14 1053.01 409.874 1054.68 410.609C1056.38 411.344 1057.81 412.484 1058.97 414.031C1060.17 415.539 1060.77 417.569 1060.77 420.121C1060.77 422.17 1060.21 424.104 1059.09 425.921C1058 427.738 1056.4 429.208 1054.27 430.329C1052.18 431.412 1049.71 431.953 1046.85 431.953ZM1086.96 431.953C1083.2 431.953 1079.74 431.083 1076.57 429.343C1073.44 427.564 1070.95 425.109 1069.09 421.977C1067.27 418.806 1066.37 415.249 1066.37 411.305C1066.37 407.361 1067.27 403.823 1069.09 400.691C1070.95 397.559 1073.44 395.123 1076.57 393.383C1079.74 391.604 1083.2 390.715 1086.96 390.715C1090.74 390.715 1094.21 391.604 1097.34 393.383C1100.51 395.123 1103 397.559 1104.82 400.691C1106.64 403.823 1107.55 407.361 1107.55 411.305C1107.55 415.249 1106.64 418.806 1104.82 421.977C1103 425.109 1100.51 427.564 1097.34 429.343C1094.21 431.083 1090.74 431.953 1086.96 431.953ZM1086.96 426.211C1089.62 426.211 1092 425.612 1094.09 424.413C1096.18 423.176 1097.8 421.436 1098.96 419.193C1100.16 416.912 1100.76 414.282 1100.76 411.305C1100.76 408.328 1100.16 405.718 1098.96 403.475C1097.8 401.232 1096.18 399.512 1094.09 398.313C1092 397.114 1089.62 396.515 1086.96 396.515C1084.29 396.515 1081.91 397.114 1079.82 398.313C1077.73 399.512 1076.09 401.232 1074.89 403.475C1073.73 405.718 1073.15 408.328 1073.15 411.305C1073.15 414.282 1073.73 416.912 1074.89 419.193C1076.09 421.436 1077.73 423.176 1079.82 424.413C1081.91 425.612 1084.29 426.211 1086.96 426.211ZM1136.27 431.547L1120.66 413.509V431.547H1114.05V391.237H1120.66V409.623L1136.32 391.237H1144.62L1127.1 411.421L1144.91 431.547H1136.27ZM1175.06 423.311H1158.18L1155.28 431.547H1148.38L1162.82 391.179H1170.48L1184.92 431.547H1177.96L1175.06 423.311ZM1173.2 417.917L1166.65 399.183L1160.04 417.917H1173.2ZM1210.96 418.837C1216.2 414.3 1220.33 410.582 1223.34 407.685C1226.4 404.733 1228.94 401.672 1230.96 398.501C1232.99 395.33 1234 392.16 1234 388.989C1234 385.709 1233.21 383.14 1231.62 381.281C1230.09 379.422 1227.66 378.493 1224.32 378.493C1221.1 378.493 1218.58 379.532 1216.78 381.609C1215.03 383.632 1214.1 386.365 1213.99 389.809H1204.97C1205.13 383.577 1206.99 378.821 1210.55 375.541C1214.15 372.206 1218.72 370.539 1224.24 370.539C1230.2 370.539 1234.85 372.179 1238.18 375.459C1241.57 378.739 1243.26 383.112 1243.26 388.579C1243.26 392.515 1242.25 396.314 1240.23 399.977C1238.26 403.585 1235.88 406.838 1233.1 409.735C1230.36 412.578 1226.86 415.885 1222.6 419.657L1218.91 422.937H1244.9V430.727H1205.05V423.921L1210.96 418.837ZM1291.66 379.805H1264.19V396.123C1265.33 394.592 1267.03 393.308 1269.27 392.269C1271.57 391.23 1274 390.711 1276.57 390.711C1281.16 390.711 1284.88 391.695 1287.72 393.663C1290.62 395.631 1292.67 398.118 1293.87 401.125C1295.13 404.132 1295.76 407.302 1295.76 410.637C1295.76 414.682 1294.96 418.29 1293.38 421.461C1291.85 424.577 1289.52 427.037 1286.41 428.841C1283.35 430.645 1279.58 431.547 1275.09 431.547C1269.13 431.547 1264.35 430.071 1260.74 427.119C1257.13 424.167 1254.98 420.258 1254.26 415.393H1263.37C1263.97 417.962 1265.31 420.012 1267.38 421.543C1269.46 423.019 1272.06 423.757 1275.17 423.757C1279.06 423.757 1281.95 422.582 1283.87 420.231C1285.83 417.88 1286.82 414.764 1286.82 410.883C1286.82 406.947 1285.83 403.94 1283.87 401.863C1281.9 399.731 1279 398.665 1275.17 398.665C1272.5 398.665 1270.23 399.348 1268.37 400.715C1266.56 402.027 1265.25 403.831 1264.43 406.127H1255.58V371.605H1291.66V379.805ZM1324.59 408.997L1345.42 431.547H1332.79L1316.07 412.113V431.547H1306.72V370.867H1316.07V406.127L1332.47 386.365H1345.42L1324.59 408.997Z" fill="#D35C39"/>
<path d="M133.289 781.812H150.749V761.27H158.709V781.812H176.94V758.702H184.9V791.569H125.329V758.702H133.289V781.812ZM185.5 727.083C185.5 731.077 184.815 734.672 183.445 737.868C182.019 741.063 180.022 743.574 177.454 745.4C174.886 747.226 171.89 748.139 168.467 748.139V737.696C171.035 737.468 173.146 736.47 174.801 734.701C176.455 732.875 177.283 730.335 177.283 727.083C177.283 723.716 176.484 721.092 174.886 719.209C173.231 717.326 171.12 716.384 168.552 716.384C166.555 716.384 164.929 716.983 163.674 718.181C162.418 719.323 161.448 720.778 160.764 722.547C160.079 724.258 159.337 726.655 158.538 729.736C157.511 733.616 156.484 736.783 155.457 739.237C154.373 741.634 152.718 743.688 150.493 745.4C148.267 747.111 145.3 747.967 141.591 747.967C138.167 747.967 135.172 747.111 132.604 745.4C130.036 743.688 128.067 741.291 126.698 738.21C125.329 735.129 124.644 731.562 124.644 727.511C124.644 721.748 126.099 717.04 129.009 713.388C131.862 709.679 135.799 707.625 140.821 707.226V718.01C138.652 718.181 136.798 719.209 135.257 721.092C133.717 722.975 132.946 725.457 132.946 728.538C132.946 731.334 133.659 733.616 135.086 735.385C136.513 737.154 138.567 738.039 141.249 738.039C143.075 738.039 144.587 737.497 145.785 736.412C146.926 735.271 147.839 733.845 148.524 732.133C149.209 730.421 149.95 728.082 150.749 725.114C151.833 721.177 152.918 717.982 154.002 715.528C155.086 713.017 156.769 710.906 159.052 709.194C161.277 707.425 164.273 706.541 168.039 706.541C171.063 706.541 173.916 707.368 176.598 709.023C179.28 710.621 181.448 712.989 183.103 716.127C184.701 719.209 185.5 722.86 185.5 727.083ZM143.132 653.43C146.156 653.43 149.009 654.143 151.691 655.57C154.373 656.996 156.57 659.279 158.281 662.417C159.936 665.555 160.764 669.578 160.764 674.486V685.27H184.9V695.028H125.414V674.486C125.414 669.921 126.213 666.069 127.811 662.931C129.351 659.735 131.463 657.367 134.145 655.827C136.826 654.229 139.822 653.43 143.132 653.43ZM152.803 674.486C152.803 670.777 151.976 668.009 150.321 666.183C148.61 664.357 146.213 663.444 143.132 663.444C136.627 663.444 133.374 667.125 133.374 674.486V685.27H152.803V674.486ZM133.289 634.366H150.749V613.824H158.709V634.366H176.94V611.257H184.9V644.124H125.329V611.257H133.289V634.366ZM114.801 619.302H121.99L112.661 638.218H104.359L114.801 619.302ZM155.029 602.491C149.209 602.491 143.988 601.15 139.366 598.468C134.744 595.729 131.149 592.049 128.581 587.427C125.956 582.748 124.644 577.641 124.644 572.106C124.644 565.772 126.213 560.152 129.351 555.244C132.433 550.28 136.826 546.685 142.532 544.46V556.186C139.394 557.726 137.055 559.866 135.514 562.605C133.973 565.344 133.203 568.511 133.203 572.106C133.203 576.043 134.087 579.552 135.856 582.634C137.625 585.715 140.164 588.14 143.474 589.909C146.784 591.621 150.635 592.477 155.029 592.477C159.423 592.477 163.274 591.621 166.584 589.909C169.893 588.14 172.461 585.715 174.287 582.634C176.056 579.552 176.94 576.043 176.94 572.106C176.94 568.511 176.17 565.344 174.629 562.605C173.089 559.866 170.749 557.726 167.611 556.186V544.46C173.317 546.685 177.711 550.28 180.792 555.244C183.873 560.152 185.414 565.772 185.414 572.106C185.414 577.698 184.13 582.805 181.562 587.427C178.938 592.049 175.314 595.729 170.692 598.468C166.07 601.15 160.849 602.491 155.029 602.491ZM133.289 523.281H150.749L150.749 502.739H158.709L158.709 523.281H176.94V500.171H184.9V533.039H125.329V500.171H133.289L133.289 523.281ZM122.49 415.248C119.072 416.065 116.509 417.551 114.8 419.706C113.091 421.861 112.237 424.87 112.237 428.733C112.237 434.603 114.503 438.986 119.035 441.884C123.493 444.782 130.923 446.305 141.324 446.453C138.055 444.522 135.529 441.698 133.746 437.983C131.963 434.268 131.071 430.256 131.071 425.947C131.071 421.043 132.149 416.734 134.303 413.019C136.384 409.23 139.43 406.295 143.442 404.215C147.454 402.06 152.246 400.983 157.819 400.983C163.02 400.983 167.663 402.023 171.75 404.103C175.836 406.109 179.068 409.118 181.446 413.13C183.749 417.143 184.9 421.972 184.9 427.619C184.9 435.271 183.229 441.29 179.885 445.673C176.468 449.982 171.675 453.029 165.509 454.812C159.342 456.521 151.652 457.375 142.439 457.375C115.246 457.375 101.649 447.791 101.649 428.622C101.649 421.192 103.655 415.359 107.667 411.124C111.679 406.815 116.62 404.289 122.49 403.546V415.248ZM141.77 428.733C141.77 433.265 143.145 437.129 145.894 440.324C148.569 443.444 152.469 445.004 157.596 445.004C162.722 445.004 166.809 443.556 169.855 440.658C172.827 437.686 174.313 433.563 174.313 428.287C174.313 423.607 172.864 419.929 169.966 417.254C167.069 414.505 163.205 413.13 158.376 413.13C153.324 413.13 149.311 414.468 146.34 417.143C143.293 419.743 141.77 423.607 141.77 428.733ZM143.219 387.431C130.365 387.431 120.335 385.276 113.128 380.967C105.847 376.583 102.206 369.079 102.206 358.454C102.206 347.83 105.847 340.363 113.128 336.053C120.335 331.67 130.365 329.478 143.219 329.478C156.221 329.478 166.4 331.67 173.756 336.053C181.037 340.363 184.677 347.83 184.677 358.454C184.677 369.079 181.037 376.583 173.756 380.967C166.4 385.276 156.221 387.431 143.219 387.431ZM143.219 341.96C137.201 341.96 132.111 342.369 127.951 343.186C123.79 343.929 120.409 345.489 117.809 347.867C115.134 350.244 113.797 353.773 113.797 358.454C113.797 363.135 115.134 366.664 117.809 369.042C120.409 371.419 123.79 373.017 127.951 373.834C132.111 374.577 137.201 374.948 143.219 374.948C149.46 374.948 154.698 374.577 158.933 373.834C163.168 373.091 166.586 371.531 169.186 369.153C171.787 366.701 173.087 363.135 173.087 358.454C173.087 353.773 171.787 350.244 169.186 347.867C166.586 345.415 163.168 343.817 158.933 343.074C154.698 342.331 149.46 341.96 143.219 341.96ZM154.252 290.067L184.9 261.76V278.922L158.487 301.658H184.9V314.363H102.429V301.658H150.352L123.493 279.368V261.76L154.252 290.067Z" fill="#D35C39"/>
<path d="M820.05 188.75C810.36 183.905 805.515 176.264 805.515 165.828C805.515 160.797 806.773 156.185 809.289 151.992C811.804 147.799 815.578 144.491 820.61 142.068C825.641 139.553 831.791 138.295 839.058 138.295C846.233 138.295 852.336 139.553 857.368 142.068C862.492 144.491 866.313 147.799 868.828 151.992C871.344 156.185 872.602 160.797 872.602 165.828C872.602 171.046 871.251 175.658 868.549 179.665C865.94 183.578 862.446 186.607 858.066 188.75C863.377 190.706 867.57 193.921 870.645 198.394C873.72 202.773 875.257 207.944 875.257 213.907C875.257 219.964 873.72 225.321 870.645 229.98C867.57 234.639 863.284 238.226 857.787 240.742C852.289 243.258 846.047 244.516 839.058 244.516C832.07 244.516 825.827 243.258 820.33 240.742C814.926 238.226 810.686 234.639 807.611 229.98C804.537 225.321 802.999 219.964 802.999 213.907C802.999 207.851 804.537 202.633 807.611 198.254C810.686 193.874 814.833 190.706 820.05 188.75ZM857.368 167.785C857.368 162.567 855.737 158.561 852.476 155.765C849.215 152.97 844.742 151.572 839.058 151.572C833.468 151.572 829.042 152.97 825.781 155.765C822.52 158.561 820.889 162.614 820.889 167.925C820.889 172.584 822.566 176.404 825.921 179.386C829.368 182.274 833.747 183.718 839.058 183.718C844.37 183.718 848.749 182.227 852.196 179.246C855.644 176.264 857.368 172.444 857.368 167.785ZM839.058 195.738C832.909 195.738 827.877 197.275 823.964 200.35C820.144 203.332 818.234 207.665 818.234 213.348C818.234 218.659 820.097 222.992 823.824 226.346C827.551 229.608 832.629 231.238 839.058 231.238C845.394 231.238 850.379 229.561 854.013 226.207C857.74 222.852 859.604 218.566 859.604 213.348C859.604 207.758 857.694 203.425 853.873 200.35C850.146 197.275 845.208 195.738 839.058 195.738ZM891.987 189.728C891.987 173.609 894.689 161.03 900.093 151.992C905.59 142.86 915.001 138.295 928.325 138.295C941.65 138.295 951.014 142.86 956.418 151.992C961.915 161.03 964.664 173.609 964.664 189.728C964.664 206.034 961.915 218.799 956.418 228.024C951.014 237.155 941.65 241.72 928.325 241.72C915.001 241.72 905.59 237.155 900.093 228.024C894.689 218.799 891.987 206.034 891.987 189.728ZM949.01 189.728C949.01 182.181 948.498 175.798 947.473 170.58C946.541 165.363 944.585 161.123 941.603 157.862C938.621 154.507 934.195 152.83 928.325 152.83C922.455 152.83 918.029 154.507 915.048 157.862C912.066 161.123 910.063 165.363 909.038 170.58C908.106 175.798 907.64 182.181 907.64 189.728C907.64 197.555 908.106 204.124 909.038 209.435C909.97 214.746 911.926 219.032 914.908 222.293C917.983 225.554 922.455 227.185 928.325 227.185C934.195 227.185 938.621 225.554 941.603 222.293C944.678 219.032 946.681 214.746 947.613 209.435C948.545 204.124 949.01 197.555 949.01 189.728ZM1014.09 203.565L1049.59 242H1028.06L999.553 208.876V242H983.62V138.574H999.553V198.673L1027.51 164.99H1049.59L1014.09 203.565Z" fill="#D35C39"/>
</svg>
