<svg width="2895" height="2059" viewBox="0 0 2895 2059" fill="none" xmlns="http://www.w3.org/2000/svg">
<path d="M548.852 569.388H510.801V914.053H461.721V569.388H423.67V528.58H548.852V569.388ZM612.516 917.362C605.898 917.362 599.281 916.259 592.663 914.053C586.046 911.847 579.98 908.538 574.465 904.126C569.318 899.347 565.09 893.281 561.781 885.928C558.84 878.575 557.37 869.936 557.37 860.009V582.623C557.37 572.697 558.84 564.057 561.781 556.704C565.09 549.352 569.318 543.469 574.465 539.058C579.98 534.278 586.046 530.786 592.663 528.58C599.281 526.374 605.898 525.271 612.516 525.271H622.442C629.427 525.271 636.229 526.374 642.846 528.58C649.464 530.786 655.346 534.278 660.493 539.058C665.64 543.469 669.684 549.352 672.625 556.704C675.934 564.057 677.589 572.697 677.589 582.623V860.009C677.589 869.936 675.934 878.575 672.625 885.928C669.684 893.281 665.64 899.347 660.493 904.126C655.346 908.538 649.464 911.847 642.846 914.053C636.229 916.259 629.427 917.362 622.442 917.362H612.516ZM616.376 566.079C609.759 566.079 606.45 573.984 606.45 589.792V852.84C606.45 868.649 609.759 876.553 616.376 876.553H618.582C625.2 876.553 628.508 868.649 628.508 852.84V589.792C628.508 573.984 625.2 566.079 618.582 566.079H616.376ZM811.12 569.388H773.069V914.053H723.989V569.388H685.938V528.58H811.12V569.388ZM874.608 814.789H848.137L840.417 914.053H797.954L831.593 528.58H893.909L929.754 914.053H882.879L874.608 814.789ZM851.446 777.841H871.85L862.475 662.585H860.821L851.446 777.841ZM987.748 528.58V877.656H1032.97V914.053H938.668V528.58H987.748ZM512.068 1030.58C527.509 1030.58 540.376 1035.54 550.67 1045.47C561.332 1055.4 566.663 1069.37 566.663 1087.38V1213.11C566.663 1230.76 561.516 1243.08 551.222 1250.06C541.295 1257.05 528.612 1260.54 513.171 1260.54H495.524V1416.05H446.444V1030.58H512.068ZM517.582 1095.1C517.582 1079.29 514.09 1071.39 507.105 1071.39H495.524V1219.73H508.207C514.457 1219.73 517.582 1212.38 517.582 1197.67V1095.1ZM701.836 1186.09C701.836 1197.86 699.998 1206.68 696.321 1212.56C692.645 1218.08 688.049 1221.75 682.535 1223.59C688.049 1225.06 692.645 1228.74 696.321 1234.62C699.998 1240.14 701.836 1248.78 701.836 1260.54V1343.81C701.836 1370.28 702.755 1388.85 704.593 1399.51C706.799 1409.8 708.269 1415.32 709.005 1416.05H659.925C656.983 1411.64 654.961 1403.74 653.858 1392.34C653.123 1380.94 652.756 1364.77 652.756 1343.81V1264.95C652.756 1249.51 649.631 1241.79 643.381 1241.79H630.697V1416.05H581.617V1030.58H647.241C662.682 1030.58 675.549 1035.54 685.843 1045.47C696.505 1055.4 701.836 1069.37 701.836 1087.38V1186.09ZM643.381 1205.39C649.631 1205.39 652.756 1198.04 652.756 1183.34V1095.1C652.756 1079.29 649.263 1071.39 642.278 1071.39H630.697V1205.39H643.381ZM769.64 1030.58V1416.05H720.56V1030.58H769.64ZM902.095 1416.05H781.324V1379.66L847.5 1066.98H791.802V1030.58H896.58V1066.98L830.404 1379.66H902.095V1416.05ZM962.975 1071.39V1205.39H999.923V1241.79H962.975V1375.24H1013.71V1416.05H913.895V1030.58H1009.85V1071.39H962.975Z" fill="#FAFAFA"/>
<path d="M1209.42 1419.6C1194.32 1419.6 1179.21 1417.09 1164.11 1412.05C1149.01 1407.02 1135.16 1399.47 1122.57 1389.4C1110.83 1378.49 1101.18 1364.64 1093.62 1347.86C1086.91 1331.08 1083.55 1311.36 1083.55 1288.7V1047.03H1195.58V1272.34C1195.58 1308.42 1203.13 1326.46 1218.23 1326.46H1223.27C1238.37 1326.46 1245.93 1308.42 1245.93 1272.34V1002.98C1245.93 982.841 1243.83 968.995 1239.63 961.443C1236.28 953.052 1230.82 948.856 1223.27 948.856H1218.23C1203.97 948.856 1196.42 963.541 1195.58 992.91V1011.79H1083.55V532.231H1356.69L1346.62 625.374H1195.58V898.509C1204.81 884.244 1215.72 873.755 1228.3 867.042C1240.89 859.49 1253.06 855.714 1264.81 855.714H1272.36C1294.17 855.714 1313.89 866.203 1331.52 887.181C1349.14 907.32 1357.95 940.465 1357.95 986.617V1288.7C1357.95 1311.36 1354.17 1331.08 1346.62 1347.86C1339.91 1364.64 1330.68 1378.49 1318.93 1389.4C1307.18 1399.47 1293.76 1407.02 1278.65 1412.05C1263.55 1417.09 1248.02 1419.6 1232.08 1419.6H1209.42ZM1504.13 532.231V1328.98H1607.34V1412.05H1392.11V532.231H1504.13ZM1752.75 933.752V785.227H1838.34V933.752H1966.73V1009.27H1838.34V1157.8H1752.75V1009.27H1626.88V933.752H1752.75Z" fill="#FAFAFA"/>
<path d="M1723.76 528.783V638.18H1705.81V563.254L1672.44 638.18H1660.01L1626.48 563.254V638.18H1608.53V528.783H1627.9L1666.3 614.569L1704.55 528.783H1723.76ZM1765.28 528.783V638.18H1747.34V528.783H1765.28ZM1904.07 528.783V638.18H1886.12V563.254L1852.75 638.18H1840.32L1806.79 563.254V638.18H1788.84V528.783H1808.2L1846.61 614.569L1884.86 528.783H1904.07ZM1945.59 543.264V575.375H1983.37V590.013H1945.59V623.541H1988.09V638.18H1927.65V528.625H1988.09V543.264H1945.59ZM2058.64 613.782C2068.71 605.072 2076.64 597.936 2082.41 592.375C2088.29 586.708 2093.16 580.831 2097.05 574.745C2100.93 568.659 2102.87 562.572 2102.87 556.486C2102.87 550.19 2101.35 545.258 2098.31 541.69C2095.37 538.122 2090.7 536.338 2084.3 536.338C2078.11 536.338 2073.28 538.332 2069.82 542.319C2066.46 546.202 2064.67 551.449 2064.46 558.06H2047.15C2047.46 546.097 2051.03 536.968 2057.85 530.671C2064.78 524.27 2073.54 521.07 2084.14 521.07C2095.58 521.07 2104.5 524.218 2110.9 530.514C2117.41 536.81 2120.66 545.205 2120.66 555.699C2120.66 563.254 2118.72 570.548 2114.83 577.578C2111.06 584.504 2106.49 590.748 2101.14 596.31C2095.89 601.766 2089.18 608.115 2080.99 615.356L2073.91 621.652H2123.81V636.606H2047.31V623.541L2058.64 613.782ZM2213.55 538.857H2160.82V570.18C2163.02 567.242 2166.28 564.776 2170.58 562.782C2174.99 560.788 2179.66 559.792 2184.59 559.792C2193.4 559.792 2200.54 561.68 2206 565.458C2211.56 569.236 2215.49 574.011 2217.8 579.782C2220.21 585.554 2221.42 591.64 2221.42 598.041C2221.42 605.807 2219.9 612.732 2216.86 618.819C2213.92 624.8 2209.46 629.522 2203.48 632.985C2197.6 636.448 2190.36 638.18 2181.76 638.18C2170.32 638.18 2161.13 635.346 2154.21 629.68C2147.28 624.013 2143.14 616.51 2141.77 607.171H2159.25C2160.4 612.103 2162.97 616.038 2166.96 618.976C2170.95 621.809 2175.93 623.226 2181.91 623.226C2189.36 623.226 2194.92 620.97 2198.6 616.458C2202.38 611.945 2204.26 605.964 2204.26 598.513C2204.26 590.958 2202.38 585.186 2198.6 581.199C2194.82 577.106 2189.26 575.06 2181.91 575.06C2176.77 575.06 2172.42 576.372 2168.85 578.995C2165.38 581.514 2162.87 584.976 2161.29 589.384H2144.29V523.116H2213.55V538.857ZM2276.78 594.893L2316.76 638.18H2292.52L2260.41 600.874V638.18H2242.46V521.699H2260.41V589.384L2291.89 551.449H2316.76L2276.78 594.893Z" fill="#D35C39"/>
<path d="M429.061 434.84C429.061 422.503 431.903 411.436 437.588 401.639C443.393 391.842 451.194 384.222 460.991 378.78C470.909 373.216 481.734 370.434 493.466 370.434C506.891 370.434 518.805 373.76 529.206 380.413C539.729 386.944 547.349 396.257 552.066 408.352H527.211C523.945 401.7 519.41 396.741 513.604 393.475C507.799 390.209 501.086 388.577 493.466 388.577C485.121 388.577 477.682 390.451 471.151 394.201C464.62 397.95 459.479 403.332 455.73 410.347C452.102 417.362 450.287 425.526 450.287 434.84C450.287 444.153 452.102 452.317 455.73 459.332C459.479 466.347 464.62 471.789 471.151 475.66C477.682 479.409 485.121 481.284 493.466 481.284C501.086 481.284 507.799 479.651 513.604 476.385C519.41 473.12 523.945 468.161 527.211 461.509H552.066C547.349 473.604 539.729 482.917 529.206 489.448C518.805 495.979 506.891 499.245 493.466 499.245C481.613 499.245 470.788 496.523 460.991 491.081C451.194 485.517 443.393 477.837 437.588 468.04C431.903 458.243 429.061 447.176 429.061 434.84ZM676.964 372.067V498.156H656.282V443.004H596.957V498.156H576.274V372.067H596.957V426.131H656.282V372.067H676.964ZM761.703 499.426C749.971 499.426 739.146 496.705 729.228 491.262C719.432 485.699 711.63 478.018 705.825 468.221C700.14 458.304 697.298 447.176 697.298 434.84C697.298 422.503 700.14 411.436 705.825 401.639C711.63 391.842 719.432 384.222 729.228 378.78C739.146 373.216 749.971 370.434 761.703 370.434C773.556 370.434 784.381 373.216 794.178 378.78C804.096 384.222 811.897 391.842 817.581 401.639C823.266 411.436 826.108 422.503 826.108 434.84C826.108 447.176 823.266 458.304 817.581 468.221C811.897 478.018 804.096 485.699 794.178 491.262C784.381 496.705 773.556 499.426 761.703 499.426ZM761.703 481.465C770.049 481.465 777.487 479.591 784.018 475.841C790.549 471.971 795.629 466.528 799.258 459.513C803.007 452.377 804.882 444.153 804.882 434.84C804.882 425.526 803.007 417.362 799.258 410.347C795.629 403.332 790.549 397.95 784.018 394.201C777.487 390.451 770.049 388.577 761.703 388.577C753.358 388.577 745.919 390.451 739.388 394.201C732.857 397.95 727.717 403.332 723.967 410.347C720.339 417.362 718.524 425.526 718.524 434.84C718.524 444.153 720.339 452.377 723.967 459.513C727.717 466.528 732.857 471.971 739.388 475.841C745.919 479.591 753.358 481.465 761.703 481.465ZM911.954 498.156L882.926 447.721H867.143V498.156H846.46V372.067H890.002C899.678 372.067 907.842 373.76 914.494 377.147C921.267 380.534 926.287 385.069 929.552 390.754C932.939 396.438 934.632 402.788 934.632 409.803C934.632 418.028 932.213 425.526 927.375 432.3C922.658 438.952 915.341 443.487 905.423 445.906L936.628 498.156H911.954ZM867.143 431.211H890.002C897.743 431.211 903.548 429.276 907.419 425.406C911.41 421.535 913.406 416.334 913.406 409.803C913.406 403.272 911.47 398.192 907.6 394.564C903.73 390.814 897.864 388.939 890.002 388.939H867.143V431.211ZM981.772 388.758V425.768H1025.31V442.641H981.772V481.284H1030.76V498.156H961.09V371.886H1030.76V388.758H981.772ZM1113.74 499.426C1102.01 499.426 1091.19 496.705 1081.27 491.262C1071.47 485.699 1063.67 478.018 1057.86 468.221C1052.18 458.304 1049.34 447.176 1049.34 434.84C1049.34 422.503 1052.18 411.436 1057.86 401.639C1063.67 391.842 1071.47 384.222 1081.27 378.78C1091.19 373.216 1102.01 370.434 1113.74 370.434C1125.6 370.434 1136.42 373.216 1146.22 378.78C1156.13 384.222 1163.94 391.842 1169.62 401.639C1175.31 411.436 1178.15 422.503 1178.15 434.84C1178.15 447.176 1175.31 458.304 1169.62 468.221C1163.94 478.018 1156.13 485.699 1146.22 491.262C1136.42 496.705 1125.6 499.426 1113.74 499.426ZM1113.74 481.465C1122.09 481.465 1129.53 479.591 1136.06 475.841C1142.59 471.971 1147.67 466.528 1151.3 459.513C1155.05 452.377 1156.92 444.153 1156.92 434.84C1156.92 425.526 1155.05 417.362 1151.3 410.347C1147.67 403.332 1142.59 397.95 1136.06 394.201C1129.53 390.451 1122.09 388.577 1113.74 388.577C1105.4 388.577 1097.96 390.451 1091.43 394.201C1084.9 397.95 1079.76 403.332 1076.01 410.347C1072.38 417.362 1070.56 425.526 1070.56 434.84C1070.56 444.153 1072.38 452.377 1076.01 459.513C1079.76 466.528 1084.9 471.971 1091.43 475.841C1097.96 479.591 1105.4 481.465 1113.74 481.465ZM1302.09 498.156H1281.41L1219.18 403.998V498.156H1198.5V371.886H1219.18L1281.41 465.863V371.886H1302.09V498.156ZM1349.93 372.067V498.156H1329.25V372.067H1349.93ZM1458.55 372.067V388.939H1424.98V498.156H1404.3V388.939H1370.56V372.067H1458.55ZM1500.17 388.758V425.768H1543.72V442.641H1500.17V481.284H1549.16V498.156H1479.49V371.886H1549.16V388.758H1500.17Z" fill="#D35C39"/>
<path d="M2062.58 932.786V992.317C2062.58 999.684 2060.32 1005.51 2055.81 1009.78C2051.37 1014.06 2045.51 1016.2 2038.22 1016.2C2030.94 1016.2 2025.03 1014.06 2020.52 1009.78C2016.08 1005.51 2013.86 999.684 2013.86 992.317H2027.53C2027.61 995.961 2028.52 998.852 2030.26 1000.99C2032.08 1003.13 2034.74 1004.2 2038.22 1004.2C2041.71 1004.2 2044.36 1003.13 2046.18 1000.99C2048.01 998.773 2048.92 995.882 2048.92 992.317V932.786H2062.58ZM2134.41 998.496H2099.83L2093.89 1015.37H2079.75L2109.33 932.667H2125.02L2154.61 1015.37H2140.35L2134.41 998.496ZM2130.6 987.445L2117.18 949.065L2103.63 987.445H2130.6ZM2254.45 932.786V1015.37H2240.91V958.808L2215.71 1015.37H2206.33L2181.02 958.808V1015.37H2167.47V932.786H2182.09L2211.08 997.545L2239.95 932.786H2254.45ZM2382.65 910.078H2326.75V943.284C2329.09 940.169 2332.53 937.555 2337.09 935.441C2341.77 933.327 2346.72 932.271 2351.95 932.271C2361.29 932.271 2368.85 934.273 2374.64 938.278C2380.54 942.282 2384.71 947.344 2387.15 953.462C2389.71 959.581 2390.99 966.033 2390.99 972.819C2390.99 981.051 2389.38 988.393 2386.15 994.845C2383.04 1001.19 2378.31 1006.19 2371.97 1009.86C2365.74 1013.53 2358.06 1015.37 2348.94 1015.37C2336.82 1015.37 2327.08 1012.37 2319.74 1006.36C2312.4 1000.35 2308 992.397 2306.56 982.497H2325.08C2326.3 987.725 2329.03 991.897 2333.26 995.012C2337.48 998.015 2342.77 999.517 2349.11 999.517C2357.01 999.517 2362.9 997.125 2366.8 992.342C2370.8 987.558 2372.8 981.218 2372.8 973.319C2372.8 965.31 2370.8 959.191 2366.8 954.964C2362.79 950.626 2356.9 948.456 2349.11 948.456C2343.66 948.456 2339.04 949.847 2335.26 952.628C2331.59 955.298 2328.92 958.969 2327.25 963.641H2309.23V893.391H2382.65V910.078ZM2449.67 969.481L2492.06 1015.37H2466.36L2432.32 975.822V1015.37H2413.3V891.889H2432.32V963.641L2465.69 923.427H2492.06L2449.67 969.481Z" fill="#D35C39"/>
<path d="M499.927 1541.95C506.413 1543.11 511.915 1546.53 516.432 1552.2C520.949 1557.88 523.207 1564.31 523.207 1571.49C523.207 1577.62 521.586 1583.18 518.343 1588.16C515.216 1593.03 510.641 1596.91 504.618 1599.8C498.595 1602.58 491.588 1603.97 483.596 1603.97H435.298V1483.23H481.337C489.561 1483.23 496.626 1484.62 502.533 1487.4C508.44 1490.18 512.899 1493.94 515.911 1498.69C518.922 1503.32 520.428 1508.54 520.428 1514.33C520.428 1521.28 518.575 1527.07 514.868 1531.7C511.162 1536.33 506.181 1539.75 499.927 1541.95ZM455.103 1533.96H479.6C486.086 1533.96 491.124 1532.51 494.715 1529.62C498.421 1526.6 500.274 1522.32 500.274 1516.76C500.274 1511.32 498.421 1507.09 494.715 1504.08C491.124 1500.95 486.086 1499.39 479.6 1499.39H455.103V1533.96ZM481.859 1587.82C488.576 1587.82 493.846 1586.2 497.668 1582.95C501.491 1579.71 503.402 1575.19 503.402 1569.4C503.402 1563.49 501.375 1558.8 497.321 1555.33C493.267 1551.85 487.881 1550.12 481.164 1550.12H455.103V1587.82H481.859ZM617.525 1579.3H566.968L558.282 1603.97H537.607L580.867 1483.06H603.8L647.06 1603.97H626.212L617.525 1579.3ZM611.966 1563.15L592.334 1507.03L572.528 1563.15H611.966ZM765.072 1603.97H745.266L685.675 1513.81V1603.97H665.87V1483.06H685.675L745.266 1573.05V1483.06H765.072V1603.97ZM830.519 1483.23C843.375 1483.23 854.61 1485.72 864.223 1490.7C873.952 1495.56 881.423 1502.63 886.635 1511.9C891.963 1521.05 894.627 1531.76 894.627 1544.04C894.627 1556.31 891.963 1566.97 886.635 1576C881.423 1585.04 873.952 1591.99 864.223 1596.85C854.61 1601.6 843.375 1603.97 830.519 1603.97H791.081V1483.23H830.519ZM830.519 1587.82C844.649 1587.82 855.479 1584 863.007 1576.35C870.536 1568.71 874.3 1557.93 874.3 1544.04C874.3 1530.02 870.536 1519.08 863.007 1511.2C855.479 1503.32 844.649 1499.39 830.519 1499.39H810.887V1587.82H830.519ZM1014.46 1605.19C1003.23 1605.19 992.859 1602.58 983.362 1597.37C973.98 1592.04 966.51 1584.69 960.95 1575.31C955.506 1565.81 952.785 1555.16 952.785 1543.34C952.785 1531.53 955.506 1520.93 960.95 1511.55C966.51 1502.17 973.98 1494.87 983.362 1489.66C992.859 1484.33 1003.23 1481.67 1014.46 1481.67C1025.81 1481.67 1036.18 1484.33 1045.56 1489.66C1055.06 1494.87 1062.53 1502.17 1067.97 1511.55C1073.41 1520.93 1076.14 1531.53 1076.14 1543.34C1076.14 1555.16 1073.41 1565.81 1067.97 1575.31C1062.53 1584.69 1055.06 1592.04 1045.56 1597.37C1036.18 1602.58 1025.81 1605.19 1014.46 1605.19ZM1014.46 1587.99C1022.45 1587.99 1029.58 1586.2 1035.83 1582.61C1042.08 1578.9 1046.95 1573.69 1050.42 1566.97C1054.01 1560.14 1055.81 1552.26 1055.81 1543.34C1055.81 1534.42 1054.01 1526.6 1050.42 1519.89C1046.95 1513.17 1042.08 1508.02 1035.83 1504.42C1029.58 1500.83 1022.45 1499.04 1014.46 1499.04C1006.47 1499.04 999.346 1500.83 993.091 1504.42C986.837 1508.02 981.914 1513.17 978.324 1519.89C974.849 1526.6 973.112 1534.42 973.112 1543.34C973.112 1552.26 974.849 1560.14 978.324 1566.97C981.914 1573.69 986.837 1578.9 993.091 1582.61C999.346 1586.2 1006.47 1587.99 1014.46 1587.99ZM1166.68 1483.23V1499.39H1115.43V1535H1155.39V1551.16H1115.43V1603.97H1095.63V1483.23H1166.68ZM1294.8 1541.95C1301.28 1543.11 1306.79 1546.53 1311.3 1552.2C1315.82 1557.88 1318.08 1564.31 1318.08 1571.49C1318.08 1577.62 1316.46 1583.18 1313.21 1588.16C1310.09 1593.03 1305.51 1596.91 1299.49 1599.8C1293.47 1602.58 1286.46 1603.97 1278.47 1603.97H1230.17V1483.23H1276.21C1284.43 1483.23 1291.5 1484.62 1297.4 1487.4C1303.31 1490.18 1307.77 1493.94 1310.78 1498.69C1313.79 1503.32 1315.3 1508.54 1315.3 1514.33C1315.3 1521.28 1313.45 1527.07 1309.74 1531.7C1306.03 1536.33 1301.05 1539.75 1294.8 1541.95ZM1249.97 1533.96H1274.47C1280.96 1533.96 1286 1532.51 1289.59 1529.62C1293.29 1526.6 1295.15 1522.32 1295.15 1516.76C1295.15 1511.32 1293.29 1507.09 1289.59 1504.08C1286 1500.95 1280.96 1499.39 1274.47 1499.39H1249.97V1533.96ZM1276.73 1587.82C1283.45 1587.82 1288.72 1586.2 1292.54 1582.95C1296.36 1579.71 1298.27 1575.19 1298.27 1569.4C1298.27 1563.49 1296.25 1558.8 1292.19 1555.33C1288.14 1551.85 1282.75 1550.12 1276.03 1550.12H1249.97V1587.82H1276.73ZM1402.32 1603.97L1374.52 1555.68H1359.41V1603.97H1339.6V1483.23H1381.3C1390.56 1483.23 1398.38 1484.85 1404.75 1488.09C1411.24 1491.34 1416.04 1495.68 1419.17 1501.12C1422.41 1506.57 1424.04 1512.65 1424.04 1519.37C1424.04 1527.24 1421.72 1534.42 1417.09 1540.91C1412.57 1547.28 1405.56 1551.62 1396.07 1553.94L1425.95 1603.97H1402.32ZM1359.41 1539.87H1381.3C1388.71 1539.87 1394.27 1538.01 1397.98 1534.31C1401.8 1530.6 1403.71 1525.62 1403.71 1519.37C1403.71 1513.11 1401.86 1508.25 1398.15 1504.77C1394.44 1501.18 1388.83 1499.39 1381.3 1499.39H1359.41V1539.87ZM1522.17 1579.3H1471.61L1462.92 1603.97H1442.25L1485.51 1483.06H1508.44L1551.7 1603.97H1530.85L1522.17 1579.3ZM1516.61 1563.15L1496.98 1507.03L1477.17 1563.15H1516.61ZM1666.94 1483.23V1603.97H1647.13V1551.16H1590.32V1603.97H1570.51V1483.23H1590.32V1535H1647.13V1483.23H1666.94ZM1820.18 1483.23V1603.97H1800.38V1521.28L1763.55 1603.97H1749.82L1712.82 1521.28V1603.97H1693.01V1483.23H1714.38L1756.77 1577.91L1798.99 1483.23H1820.18ZM1919.01 1579.3H1868.45L1859.77 1603.97H1839.09L1882.35 1483.06H1905.28L1948.54 1603.97H1927.7L1919.01 1579.3ZM1913.45 1563.15L1893.82 1507.03L1874.01 1563.15H1913.45ZM2009.53 1508.59C2010.23 1497.82 2014.34 1489.43 2021.87 1483.4C2029.51 1477.38 2039.24 1474.37 2051.05 1474.37C2059.16 1474.37 2066.17 1475.82 2072.08 1478.71C2077.98 1481.61 2082.44 1485.55 2085.45 1490.53C2088.46 1495.51 2089.97 1501.12 2089.97 1507.38C2089.97 1514.56 2088.06 1520.7 2084.24 1525.79C2080.42 1530.89 2075.84 1534.31 2070.51 1536.04V1536.74C2077.35 1538.82 2082.67 1542.65 2086.5 1548.21C2090.32 1553.65 2092.23 1560.66 2092.23 1569.23C2092.23 1576.06 2090.67 1582.14 2087.54 1587.47C2084.41 1592.8 2079.78 1597.03 2073.64 1600.15C2067.5 1603.16 2060.15 1604.67 2051.58 1604.67C2039.07 1604.67 2028.76 1601.48 2020.65 1595.11C2012.66 1588.63 2008.37 1579.36 2007.79 1567.32H2026.9C2027.37 1573.46 2029.74 1578.49 2034.03 1582.43C2038.31 1586.25 2044.1 1588.16 2051.4 1588.16C2058.47 1588.16 2063.91 1586.25 2067.73 1582.43C2071.55 1578.49 2073.47 1573.46 2073.47 1567.32C2073.47 1559.21 2070.86 1553.48 2065.65 1550.12C2060.55 1546.64 2052.68 1544.9 2042.02 1544.9H2037.5V1528.57H2042.19C2051.58 1528.46 2058.7 1526.89 2063.56 1523.88C2068.54 1520.87 2071.03 1516.12 2071.03 1509.64C2071.03 1504.08 2069.24 1499.68 2065.65 1496.43C2062.06 1493.07 2056.96 1491.39 2050.36 1491.39C2043.87 1491.39 2038.83 1493.07 2035.24 1496.43C2031.65 1499.68 2029.51 1503.73 2028.82 1508.59H2009.53ZM2113.03 1539C2113.03 1518.96 2116.39 1503.32 2123.11 1492.09C2129.94 1480.74 2141.64 1475.06 2158.2 1475.06C2174.77 1475.06 2186.41 1480.74 2193.13 1492.09C2199.96 1503.32 2203.38 1518.96 2203.38 1539C2203.38 1559.27 2199.96 1575.13 2193.13 1586.6C2186.41 1597.95 2174.77 1603.63 2158.2 1603.63C2141.64 1603.63 2129.94 1597.95 2123.11 1586.6C2116.39 1575.13 2113.03 1559.27 2113.03 1539ZM2183.92 1539C2183.92 1529.62 2183.28 1521.68 2182.01 1515.2C2180.85 1508.71 2178.42 1503.44 2174.71 1499.39C2171 1495.22 2165.5 1493.13 2158.2 1493.13C2150.91 1493.13 2145.41 1495.22 2141.7 1499.39C2137.99 1503.44 2135.5 1508.71 2134.23 1515.2C2133.07 1521.68 2132.49 1529.62 2132.49 1539C2132.49 1548.73 2133.07 1556.89 2134.23 1563.49C2135.39 1570.1 2137.82 1575.42 2141.53 1579.48C2145.35 1583.53 2150.91 1585.56 2158.2 1585.56C2165.5 1585.56 2171 1583.53 2174.71 1579.48C2178.53 1575.42 2181.02 1570.1 2182.18 1563.49C2183.34 1556.89 2183.92 1548.73 2183.92 1539ZM2264.81 1556.2L2308.94 1603.97H2282.19L2246.74 1562.8V1603.97H2226.94V1475.41H2246.74V1550.12L2281.49 1508.25H2308.94L2264.81 1556.2Z" fill="#D35C39"/>
<path d="M504.978 1694.26L472.99 1779.44H456.812L424.7 1694.26H439.653L464.901 1765.1L490.271 1694.26H504.978ZM568.016 1762.03H532.351L526.223 1779.44H511.638L542.156 1694.13H558.334L588.851 1779.44H574.144L568.016 1762.03ZM564.094 1750.64L550.245 1711.05L536.273 1750.64H564.094ZM616.093 1768.16H644.895V1779.44H602.121V1694.26H616.093V1768.16ZM695.431 1780.3C687.505 1780.3 680.193 1778.46 673.493 1774.78C666.874 1771.02 661.604 1765.83 657.682 1759.21C653.842 1752.51 651.922 1745 651.922 1736.66C651.922 1728.33 653.842 1720.85 657.682 1714.23C661.604 1707.62 666.874 1702.47 673.493 1698.79C680.193 1695.03 687.505 1693.15 695.431 1693.15C703.438 1693.15 710.751 1695.03 717.37 1698.79C724.07 1702.47 729.34 1707.62 733.18 1714.23C737.02 1720.85 738.94 1728.33 738.94 1736.66C738.94 1745 737.02 1752.51 733.18 1759.21C729.34 1765.83 724.07 1771.02 717.37 1774.78C710.751 1778.46 703.438 1780.3 695.431 1780.3ZM695.431 1768.16C701.069 1768.16 706.094 1766.9 710.506 1764.36C714.918 1761.75 718.35 1758.07 720.801 1753.33C723.334 1748.51 724.601 1742.96 724.601 1736.66C724.601 1730.37 723.334 1724.86 720.801 1720.12C718.35 1715.38 714.918 1711.74 710.506 1709.21C706.094 1706.68 701.069 1705.41 695.431 1705.41C689.793 1705.41 684.768 1706.68 680.356 1709.21C675.944 1711.74 672.471 1715.38 669.938 1720.12C667.487 1724.86 666.261 1730.37 666.261 1736.66C666.261 1742.96 667.487 1748.51 669.938 1753.33C672.471 1758.07 675.944 1761.75 680.356 1764.36C684.768 1766.9 689.793 1768.16 695.431 1768.16ZM796.934 1779.44L777.324 1745.37H766.661V1779.44H752.689V1694.26H782.104C788.641 1694.26 794.156 1695.4 798.65 1697.69C803.225 1699.98 806.616 1703.04 808.822 1706.88C811.11 1710.72 812.254 1715.01 812.254 1719.75C812.254 1725.31 810.62 1730.37 807.352 1734.95C804.165 1739.44 799.222 1742.51 792.522 1744.14L813.602 1779.44H796.934ZM766.661 1734.21H782.104C787.333 1734.21 791.255 1732.91 793.87 1730.29C796.566 1727.68 797.914 1724.16 797.914 1719.75C797.914 1715.34 796.607 1711.91 793.993 1709.45C791.378 1706.92 787.415 1705.66 782.104 1705.66H766.661V1734.21ZM881.481 1762.03H845.816L839.688 1779.44H825.103L855.621 1694.13H871.799L902.317 1779.44H887.609L881.481 1762.03ZM877.559 1750.64L863.71 1711.05L849.738 1750.64H877.559ZM985.568 1779.44H971.596L929.558 1715.83V1779.44H915.586V1694.13H929.558L971.596 1757.62V1694.13H985.568V1779.44ZM1058.95 1694.26V1705.66H1036.27V1779.44H1022.3V1705.66H999.504V1694.26H1058.95ZM1172.98 1683.74C1171.73 1678.5 1169.45 1674.57 1166.15 1671.95C1162.84 1669.33 1158.23 1668.02 1152.3 1668.02C1143.3 1668.02 1136.58 1671.49 1132.14 1678.44C1127.7 1685.28 1125.36 1696.67 1125.13 1712.62C1128.1 1707.61 1132.43 1703.74 1138.12 1701C1143.82 1698.27 1149.97 1696.9 1156.58 1696.9C1164.1 1696.9 1170.7 1698.55 1176.4 1701.86C1182.21 1705.05 1186.71 1709.72 1189.9 1715.87C1193.2 1722.02 1194.86 1729.37 1194.86 1737.91C1194.86 1745.89 1193.26 1753.01 1190.07 1759.27C1186.99 1765.54 1182.38 1770.49 1176.23 1774.14C1170.08 1777.67 1162.67 1779.44 1154.01 1779.44C1142.28 1779.44 1133.05 1776.87 1126.33 1771.75C1119.72 1766.51 1115.05 1759.16 1112.32 1749.7C1109.7 1740.25 1108.39 1728.46 1108.39 1714.33C1108.39 1672.63 1123.08 1651.79 1152.48 1651.79C1163.87 1651.79 1172.81 1654.86 1179.3 1661.01C1185.91 1667.17 1189.79 1674.74 1190.92 1683.74H1172.98ZM1152.3 1713.3C1145.36 1713.3 1139.43 1715.41 1134.53 1719.63C1129.75 1723.73 1127.36 1729.71 1127.36 1737.57C1127.36 1745.43 1129.58 1751.7 1134.02 1756.37C1138.58 1760.92 1144.9 1763.2 1152.99 1763.2C1160.17 1763.2 1165.8 1760.98 1169.91 1756.54C1174.12 1752.1 1176.23 1746.17 1176.23 1738.77C1176.23 1731.02 1174.18 1724.87 1170.08 1720.31C1166.09 1715.64 1160.17 1713.3 1152.3 1713.3ZM1255.45 1732.44L1298.86 1779.44H1272.54L1237.68 1738.94V1779.44H1218.2V1652.98H1237.68V1726.46L1271.86 1685.28H1298.86L1255.45 1732.44Z" fill="#D35C39"/>
<path d="M986.866 284.554V351.688H975.855V305.708L955.376 351.688H947.745L927.171 305.708V351.688H916.159V284.554H928.04L951.609 337.198L975.082 284.554H986.866ZM1012.25 284.554V327.346C1012.25 332.433 1013.58 336.265 1016.22 338.84C1018.92 341.416 1022.65 342.704 1027.42 342.704C1032.25 342.704 1035.99 341.416 1038.63 338.84C1041.33 336.265 1042.68 332.433 1042.68 327.346V284.554H1053.69V327.152C1053.69 332.626 1052.5 337.263 1050.12 341.062C1047.74 344.861 1044.55 347.695 1040.56 349.562C1036.56 351.43 1032.15 352.364 1027.32 352.364C1022.49 352.364 1018.08 351.43 1014.09 349.562C1010.16 347.695 1007.04 344.861 1004.72 341.062C1002.4 337.263 1001.24 332.626 1001.24 327.152V284.554H1012.25ZM1089.96 284.554C1097.11 284.554 1103.35 285.939 1108.7 288.708C1114.11 291.412 1118.26 295.34 1121.16 300.492C1124.12 305.58 1125.6 311.536 1125.6 318.362C1125.6 325.188 1124.12 331.113 1121.16 336.136C1118.26 341.159 1114.11 345.022 1108.7 347.727C1103.35 350.367 1097.11 351.688 1089.96 351.688H1068.03V284.554H1089.96ZM1089.96 342.704C1097.82 342.704 1103.84 340.579 1108.02 336.329C1112.21 332.079 1114.3 326.09 1114.3 318.362C1114.3 310.57 1112.21 304.485 1108.02 300.106C1103.84 295.727 1097.82 293.537 1089.96 293.537H1079.04V342.704H1089.96ZM1190.13 284.554V351.688H1179.11V322.323H1147.53V351.688H1136.52V284.554H1147.53V313.339H1179.11V284.554H1190.13ZM1239.49 351.688L1224.04 324.834H1215.63V351.688H1204.62V284.554H1227.81C1232.96 284.554 1237.3 285.456 1240.85 287.259C1244.45 289.062 1247.12 291.477 1248.86 294.503C1250.67 297.53 1251.57 300.911 1251.57 304.646C1251.57 309.025 1250.28 313.017 1247.7 316.624C1245.19 320.165 1241.3 322.58 1236.02 323.868L1252.63 351.688H1239.49ZM1215.63 316.044H1227.81C1231.93 316.044 1235.02 315.014 1237.08 312.953C1239.2 310.892 1240.27 308.123 1240.27 304.646C1240.27 301.168 1239.24 298.464 1237.18 296.532C1235.11 294.536 1231.99 293.537 1227.81 293.537H1215.63V316.044ZM1306.13 337.971H1278.02L1273.19 351.688H1261.69L1285.75 284.457H1298.5L1322.55 351.688H1310.96L1306.13 337.971ZM1303.04 328.988L1292.12 297.788L1281.11 328.988H1303.04ZM1357.38 289.879C1357.83 282.899 1360.5 277.458 1365.38 273.555C1370.33 269.652 1376.64 267.7 1384.29 267.7C1389.55 267.7 1394.09 268.639 1397.91 270.515C1401.74 272.391 1404.63 274.943 1406.58 278.171C1408.53 281.398 1409.51 285.038 1409.51 289.091C1409.51 293.745 1408.27 297.723 1405.8 301.025C1403.32 304.327 1400.35 306.542 1396.9 307.667V308.118C1401.33 309.469 1404.78 311.946 1407.26 315.548C1409.74 319.076 1410.97 323.617 1410.97 329.171C1410.97 333.599 1409.96 337.54 1407.93 340.992C1405.91 344.445 1402.91 347.184 1398.93 349.211C1394.95 351.162 1390.18 352.138 1384.63 352.138C1376.52 352.138 1369.84 350.074 1364.59 345.946C1359.41 341.743 1356.63 335.738 1356.26 327.932H1368.64C1368.94 331.91 1370.48 335.175 1373.26 337.727C1376.04 340.204 1379.79 341.442 1384.52 341.442C1389.1 341.442 1392.62 340.204 1395.1 337.727C1397.58 335.175 1398.82 331.91 1398.82 327.932C1398.82 322.679 1397.13 318.963 1393.75 316.787C1390.45 314.535 1385.34 313.409 1378.44 313.409H1375.51V302.826H1378.55C1384.63 302.751 1389.25 301.738 1392.4 299.787C1395.63 297.835 1397.24 294.758 1397.24 290.555C1397.24 286.952 1396.08 284.1 1393.75 281.998C1391.42 279.822 1388.12 278.733 1383.84 278.733C1379.64 278.733 1376.37 279.822 1374.05 281.998C1371.72 284.1 1370.33 286.727 1369.88 289.879H1357.38ZM1440.44 329.396C1441.19 333.149 1442.81 336.001 1445.28 337.952C1447.76 339.904 1451.1 340.879 1455.3 340.879C1460.63 340.879 1464.54 338.778 1467.01 334.575C1469.49 330.372 1470.73 323.204 1470.73 313.071C1468.93 315.623 1466.37 317.612 1463.07 319.038C1459.84 320.389 1456.32 321.065 1452.49 321.065C1447.61 321.065 1443.18 320.089 1439.2 318.138C1435.23 316.111 1432.07 313.146 1429.75 309.244C1427.5 305.266 1426.37 300.462 1426.37 294.833C1426.37 286.577 1428.77 280.009 1433.58 275.131C1438.45 270.177 1445.13 267.7 1453.62 267.7C1463.82 267.7 1471.07 271.115 1475.34 277.945C1479.7 284.7 1481.87 295.096 1481.87 309.131C1481.87 318.813 1481.05 326.732 1479.4 332.886C1477.82 339.041 1475.04 343.694 1471.07 346.846C1467.09 349.999 1461.57 351.575 1454.52 351.575C1446.48 351.575 1440.29 349.473 1435.94 345.27C1431.59 341.067 1429.15 335.776 1428.62 329.396H1440.44ZM1454.74 310.257C1459.24 310.257 1462.77 308.868 1465.32 306.091C1467.95 303.239 1469.26 299.486 1469.26 294.833C1469.26 289.654 1467.88 285.639 1465.1 282.786C1462.4 279.859 1458.68 278.396 1453.95 278.396C1449.22 278.396 1445.47 279.897 1442.69 282.899C1439.99 285.826 1438.64 289.692 1438.64 294.495C1438.64 299.074 1439.95 302.864 1442.58 305.866C1445.28 308.793 1449.34 310.257 1454.74 310.257ZM1522.15 320.727L1550.75 351.688H1533.41L1510.44 325.005V351.688H1497.61V268.376H1510.44V316.787L1532.96 289.654H1550.75L1522.15 320.727Z" fill="#D35C39"/>
<path d="M1701.25 1412.92L1683.48 1382.03H1673.81V1412.92H1661.15V1335.7H1687.81C1693.74 1335.7 1698.74 1336.74 1702.81 1338.81C1706.96 1340.88 1710.03 1343.66 1712.03 1347.14C1714.1 1350.62 1715.14 1354.51 1715.14 1358.81C1715.14 1363.85 1713.66 1368.44 1710.7 1372.59C1707.81 1376.66 1703.33 1379.44 1697.25 1380.92L1716.36 1412.92H1701.25ZM1673.81 1371.92H1687.81C1692.55 1371.92 1696.11 1370.73 1698.48 1368.36C1700.92 1365.99 1702.14 1362.81 1702.14 1358.81C1702.14 1354.81 1700.96 1351.7 1698.59 1349.48C1696.22 1347.18 1692.62 1346.03 1687.81 1346.03H1673.81V1371.92ZM1744.01 1345.92V1368.59H1770.68V1378.92H1744.01V1402.58H1774.01V1412.92H1731.34V1335.59H1774.01V1345.92H1744.01ZM1853.05 1412.92H1840.38L1802.27 1355.25V1412.92H1789.61V1335.59H1802.27L1840.38 1393.14V1335.59H1853.05V1412.92ZM1882.35 1345.92V1368.59H1909.01V1378.92H1882.35V1402.58H1912.34V1412.92H1869.68V1335.59H1912.34V1345.92H1882.35ZM1983.83 1357.92C1981.83 1354.07 1979.05 1351.18 1975.5 1349.25C1971.94 1347.25 1967.83 1346.25 1963.16 1346.25C1958.05 1346.25 1953.5 1347.4 1949.5 1349.7C1945.5 1351.99 1942.35 1355.25 1940.06 1359.48C1937.83 1363.7 1936.72 1368.59 1936.72 1374.14C1936.72 1379.7 1937.83 1384.62 1940.06 1388.92C1942.35 1393.14 1945.5 1396.4 1949.5 1398.69C1953.5 1400.99 1958.05 1402.14 1963.16 1402.14C1970.05 1402.14 1975.65 1400.21 1979.94 1396.36C1984.24 1392.51 1986.87 1387.29 1987.83 1380.7H1958.83V1370.59H2001.38V1380.47C2000.57 1386.47 1998.42 1391.99 1994.94 1397.03C1991.53 1402.06 1987.05 1406.1 1981.5 1409.14C1976.02 1412.1 1969.9 1413.58 1963.16 1413.58C1955.91 1413.58 1949.28 1411.92 1943.28 1408.58C1937.28 1405.18 1932.5 1400.47 1928.94 1394.47C1925.46 1388.47 1923.72 1381.7 1923.72 1374.14C1923.72 1366.59 1925.46 1359.81 1928.94 1353.81C1932.5 1347.81 1937.28 1343.14 1943.28 1339.81C1949.35 1336.4 1955.98 1334.7 1963.16 1334.7C1971.39 1334.7 1978.68 1336.74 1985.05 1340.81C1991.5 1344.81 1996.16 1350.51 1999.05 1357.92H1983.83ZM2060.43 1397.14H2028.1L2022.54 1412.92H2009.32L2036.99 1335.59H2051.65L2079.32 1412.92H2065.98L2060.43 1397.14ZM2056.87 1386.81L2044.32 1350.92L2031.65 1386.81H2056.87ZM2116.57 1335.7C2124.79 1335.7 2131.97 1337.29 2138.12 1340.48C2144.34 1343.59 2149.12 1348.11 2152.45 1354.03C2155.86 1359.88 2157.56 1366.73 2157.56 1374.59C2157.56 1382.44 2155.86 1389.25 2152.45 1395.03C2149.12 1400.81 2144.34 1405.25 2138.12 1408.36C2131.97 1411.4 2124.79 1412.92 2116.57 1412.92H2091.34V1335.7H2116.57ZM2116.57 1402.58C2125.6 1402.58 2132.53 1400.14 2137.34 1395.25C2142.16 1390.36 2144.56 1383.47 2144.56 1374.59C2144.56 1365.62 2142.16 1358.62 2137.34 1353.59C2132.53 1348.55 2125.6 1346.03 2116.57 1346.03H2104.01V1402.58H2116.57ZM2182.78 1345.92V1368.59H2209.45V1378.92H2182.78V1402.58H2212.78V1412.92H2170.11V1335.59H2212.78V1345.92H2182.78ZM2270.67 1385.49C2281.99 1375.7 2290.9 1367.68 2297.38 1361.43C2303.99 1355.06 2309.47 1348.46 2313.84 1341.62C2318.2 1334.78 2320.38 1327.94 2320.38 1321.1C2320.38 1314.02 2318.67 1308.48 2315.25 1304.47C2311.95 1300.46 2306.7 1298.45 2299.51 1298.45C2292.55 1298.45 2287.12 1300.69 2283.23 1305.17C2279.45 1309.54 2277.45 1315.43 2277.21 1322.87H2257.75C2258.11 1309.42 2262.12 1299.16 2269.78 1292.08C2277.57 1284.89 2287.42 1281.29 2299.33 1281.29C2312.18 1281.29 2322.21 1284.83 2329.4 1291.91C2336.72 1298.98 2340.37 1308.42 2340.37 1320.21C2340.37 1328.7 2338.19 1336.9 2333.83 1344.8C2329.58 1352.59 2324.45 1359.61 2318.44 1365.86C2312.54 1371.99 2304.99 1379.12 2295.79 1387.26L2287.83 1394.34H2343.91V1411.15H2257.93V1396.46L2270.67 1385.49ZM2361.63 1346.75C2361.63 1326.34 2365.05 1310.42 2371.89 1298.98C2378.85 1287.42 2390.76 1281.64 2407.63 1281.64C2424.49 1281.64 2436.35 1287.42 2443.19 1298.98C2450.15 1310.42 2453.63 1326.34 2453.63 1346.75C2453.63 1367.39 2450.15 1383.55 2443.19 1395.22C2436.35 1406.78 2424.49 1412.56 2407.63 1412.56C2390.76 1412.56 2378.85 1406.78 2371.89 1395.22C2365.05 1383.55 2361.63 1367.39 2361.63 1346.75ZM2433.81 1346.75C2433.81 1337.2 2433.16 1329.12 2431.87 1322.51C2430.69 1315.91 2428.21 1310.54 2424.43 1306.41C2420.66 1302.17 2415.06 1300.04 2407.63 1300.04C2400.2 1300.04 2394.59 1302.17 2390.82 1306.41C2387.05 1310.54 2384.51 1315.91 2383.21 1322.51C2382.03 1329.12 2381.44 1337.2 2381.44 1346.75C2381.44 1356.66 2382.03 1364.97 2383.21 1371.69C2384.39 1378.42 2386.87 1383.84 2390.64 1387.97C2394.54 1392.1 2400.2 1394.16 2407.63 1394.16C2415.06 1394.16 2420.66 1392.1 2424.43 1387.97C2428.33 1383.84 2430.86 1378.42 2432.04 1371.69C2433.22 1364.97 2433.81 1356.66 2433.81 1346.75ZM2516.19 1364.26L2561.12 1412.92H2533.88L2497.79 1370.99V1412.92H2477.62V1282H2497.79V1358.07L2533.17 1315.43H2561.12L2516.19 1364.26Z" fill="#D35C39"/>
<path d="M2029.71 787.195V868.235H2016.42V832.788H1978.29V868.235H1964.99V787.195H1978.29V821.943H2016.42V787.195H2029.71ZM2060.5 787.195V868.235H2047.21V787.195H2060.5ZM2104.66 869.052C2099.21 869.052 2094.32 868.119 2089.96 866.253C2085.61 864.31 2082.19 861.589 2079.7 858.091C2077.22 854.593 2075.97 850.512 2075.97 845.847H2090.2C2090.51 849.345 2091.87 852.222 2094.28 854.476C2096.77 856.73 2100.23 857.858 2104.66 857.858C2109.24 857.858 2112.82 856.769 2115.38 854.593C2117.95 852.338 2119.23 849.462 2119.23 845.964C2119.23 843.243 2118.42 841.028 2116.78 839.318C2115.23 837.607 2113.25 836.286 2110.84 835.353C2108.5 834.42 2105.24 833.41 2101.04 832.321C2095.76 830.922 2091.44 829.523 2088.1 828.124C2084.83 826.647 2082.04 824.392 2079.7 821.36C2077.37 818.329 2076.21 814.286 2076.21 809.234C2076.21 804.569 2077.37 800.488 2079.7 796.99C2082.04 793.492 2085.3 790.81 2089.5 788.945C2093.7 787.079 2098.55 786.146 2104.07 786.146C2111.92 786.146 2118.34 788.128 2123.31 792.093C2128.37 795.98 2131.16 801.343 2131.71 808.184H2117.02C2116.78 805.23 2115.38 802.704 2112.82 800.605C2110.25 798.506 2106.87 797.457 2102.67 797.457C2098.87 797.457 2095.76 798.428 2093.35 800.372C2090.94 802.315 2089.73 805.114 2089.73 808.767C2089.73 811.255 2090.47 813.315 2091.95 814.947C2093.5 816.502 2095.44 817.746 2097.78 818.679C2100.11 819.611 2103.3 820.622 2107.34 821.71C2112.7 823.187 2117.06 824.664 2120.4 826.141C2123.82 827.618 2126.69 829.911 2129.03 833.021C2131.44 836.053 2132.64 840.134 2132.64 845.264C2132.64 849.384 2131.51 853.271 2129.26 856.925C2127.08 860.578 2123.86 863.532 2119.58 865.787C2115.38 867.963 2110.41 869.052 2104.66 869.052ZM2185.29 869.052C2177.75 869.052 2170.79 867.303 2164.42 863.804C2158.12 860.229 2153.11 855.292 2149.38 848.996C2145.72 842.621 2143.9 835.47 2143.9 827.54C2143.9 819.611 2145.72 812.499 2149.38 806.202C2153.11 799.905 2158.12 795.008 2164.42 791.51C2170.79 787.934 2177.75 786.146 2185.29 786.146C2192.91 786.146 2199.87 787.934 2206.16 791.51C2212.54 795.008 2217.55 799.905 2221.2 806.202C2224.86 812.499 2226.68 819.611 2226.68 827.54C2226.68 835.47 2224.86 842.621 2221.2 848.996C2217.55 855.292 2212.54 860.229 2206.16 863.804C2199.87 867.303 2192.91 869.052 2185.29 869.052ZM2185.29 857.508C2190.65 857.508 2195.43 856.303 2199.63 853.893C2203.83 851.405 2207.1 847.907 2209.43 843.399C2211.84 838.812 2213.04 833.526 2213.04 827.54C2213.04 821.555 2211.84 816.308 2209.43 811.799C2207.1 807.29 2203.83 803.831 2199.63 801.421C2195.43 799.011 2190.65 797.806 2185.29 797.806C2179.93 797.806 2175.15 799.011 2170.95 801.421C2166.75 803.831 2163.45 807.29 2161.04 811.799C2158.7 816.308 2157.54 821.555 2157.54 827.54C2157.54 833.526 2158.7 838.812 2161.04 843.399C2163.45 847.907 2166.75 851.405 2170.95 853.893C2175.15 856.303 2179.93 857.508 2185.29 857.508ZM2284.42 868.235L2253.06 831.971V868.235H2239.77V787.195H2253.06V824.159L2284.54 787.195H2301.22L2266 827.774L2301.8 868.235H2284.42ZM2362.41 851.678H2328.48L2322.65 868.235H2308.77L2337.81 787.079H2353.2L2382.23 868.235H2368.24L2362.41 851.678ZM2358.68 840.833L2345.5 803.17L2332.21 840.833H2358.68ZM2434.58 842.683C2445.13 833.561 2453.43 826.088 2459.48 820.263C2465.63 814.328 2470.74 808.173 2474.81 801.799C2478.87 795.425 2480.91 789.05 2480.91 782.676C2480.91 776.082 2479.31 770.916 2476.13 767.18C2473.05 763.443 2468.16 761.575 2461.45 761.575C2454.97 761.575 2449.91 763.663 2446.29 767.839C2442.77 771.906 2440.9 777.401 2440.68 784.325H2422.55C2422.88 771.796 2426.62 762.234 2433.76 755.64C2441.01 748.936 2450.19 745.584 2461.29 745.584C2473.27 745.584 2482.61 748.881 2489.32 755.475C2496.13 762.069 2499.54 770.861 2499.54 781.852C2499.54 789.765 2497.5 797.403 2493.44 804.766C2489.48 812.02 2484.7 818.559 2479.09 824.384C2473.6 830.099 2466.57 836.748 2457.99 844.331L2450.57 850.926H2502.83V866.587H2422.71V852.904L2434.58 842.683ZM2596.82 764.212H2541.6V797.018C2543.91 793.941 2547.31 791.358 2551.82 789.27C2556.44 787.182 2561.33 786.138 2566.49 786.138C2575.72 786.138 2583.2 788.116 2588.91 792.073C2594.74 796.029 2598.86 801.03 2601.28 807.074C2603.8 813.119 2605.07 819.493 2605.07 826.198C2605.07 834.33 2603.47 841.584 2600.29 847.958C2597.21 854.223 2592.54 859.168 2586.27 862.795C2580.12 866.422 2572.54 868.235 2563.52 868.235C2551.54 868.235 2541.93 865.268 2534.67 859.333C2527.42 853.398 2523.08 845.54 2521.65 835.759H2539.95C2541.16 840.925 2543.85 845.046 2548.03 848.123C2552.2 851.091 2557.42 852.574 2563.69 852.574C2571.49 852.574 2577.32 850.211 2581.16 845.485C2585.12 840.76 2587.1 834.495 2587.1 826.692C2587.1 818.779 2585.12 812.734 2581.16 808.558C2577.21 804.272 2571.38 802.129 2563.69 802.129C2558.3 802.129 2553.74 803.503 2550.01 806.25C2546.38 808.888 2543.74 812.515 2542.09 817.131H2524.29V747.727H2596.82V764.212ZM2663.04 822.9L2704.91 868.235H2679.53L2645.9 829.165V868.235H2627.1V746.243H2645.9V817.131L2678.87 777.401H2704.91L2663.04 822.9Z" fill="#D35C39"/>
<path d="M267.028 1571.9H302.131V1530.6H318.134V1571.9H354.786V1525.44H370.789V1591.51H251.025V1525.44H267.028V1571.9ZM371.994 1461.87C371.994 1469.9 370.617 1477.13 367.864 1483.55C364.996 1489.98 360.981 1495.02 355.819 1498.69C350.656 1502.36 344.634 1504.2 337.751 1504.2V1483.21C342.913 1482.75 347.157 1480.74 350.484 1477.18C353.811 1473.51 355.474 1468.41 355.474 1461.87C355.474 1455.1 353.868 1449.82 350.656 1446.04C347.33 1442.25 343.085 1440.36 337.923 1440.36C333.908 1440.36 330.638 1441.56 328.114 1443.97C325.591 1446.27 323.641 1449.19 322.264 1452.75C320.887 1456.19 319.396 1461.01 317.79 1467.2C315.725 1475 313.66 1481.37 311.595 1486.3C309.416 1491.12 306.089 1495.25 301.615 1498.69C297.141 1502.14 291.176 1503.86 283.719 1503.86C276.836 1503.86 270.813 1502.14 265.651 1498.69C260.489 1495.25 256.531 1490.43 253.778 1484.24C251.025 1478.04 249.648 1470.87 249.648 1462.73C249.648 1451.14 252.574 1441.68 258.424 1434.34C264.16 1426.88 272.075 1422.75 282.17 1421.95V1443.63C277.811 1443.97 274.083 1446.04 270.986 1449.82C267.888 1453.61 266.34 1458.6 266.34 1464.79C266.34 1470.42 267.773 1475 270.641 1478.56C273.509 1482.12 277.639 1483.9 283.031 1483.9C286.702 1483.9 289.742 1482.81 292.151 1480.63C294.445 1478.33 296.281 1475.46 297.657 1472.02C299.034 1468.58 300.525 1463.88 302.131 1457.91C304.311 1450 306.49 1443.57 308.67 1438.64C310.85 1433.59 314.234 1429.35 318.822 1425.91C323.296 1422.35 329.319 1420.57 336.89 1420.57C342.97 1420.57 348.706 1422.24 354.098 1425.56C359.489 1428.77 363.849 1433.53 367.175 1439.84C370.388 1446.04 371.994 1453.38 371.994 1461.87ZM286.816 1313.8C292.896 1313.8 298.632 1315.23 304.024 1318.1C309.416 1320.97 313.832 1325.55 317.274 1331.86C320.601 1338.17 322.264 1346.26 322.264 1356.13V1377.81H370.789V1397.42H251.197V1356.13C251.197 1346.95 252.803 1339.21 256.015 1332.9C259.112 1326.47 263.357 1321.71 268.749 1318.61C274.14 1315.4 280.163 1313.8 286.816 1313.8ZM306.261 1356.13C306.261 1348.67 304.598 1343.11 301.271 1339.44C297.829 1335.76 293.011 1333.93 286.816 1333.93C273.739 1333.93 267.2 1341.33 267.2 1356.13V1377.81H306.261V1356.13ZM267.028 1275.47H302.131V1234.17H318.134V1275.47H354.786V1229.01H370.789V1295.09H251.025V1229.01H267.028V1275.47ZM229.86 1245.19H244.314L225.558 1283.21H208.866L229.86 1245.19ZM310.735 1211.39C299.034 1211.39 288.537 1208.69 279.245 1203.3C269.953 1197.79 262.726 1190.39 257.564 1181.1C252.287 1171.7 249.648 1161.43 249.648 1150.3C249.648 1137.57 252.803 1126.27 259.112 1116.4C265.307 1106.42 274.14 1099.19 285.612 1094.72V1118.3C279.303 1121.39 274.599 1125.69 271.502 1131.2C268.404 1136.71 266.856 1143.07 266.856 1150.3C266.856 1158.22 268.634 1165.27 272.19 1171.47C275.746 1177.66 280.851 1182.54 287.505 1186.09C294.158 1189.53 301.902 1191.25 310.735 1191.25C319.568 1191.25 327.311 1189.53 333.965 1186.09C340.619 1182.54 345.781 1177.66 349.452 1171.47C353.008 1165.27 354.786 1158.22 354.786 1150.3C354.786 1143.07 353.237 1136.71 350.14 1131.2C347.043 1125.69 342.339 1121.39 336.03 1118.3V1094.72C347.502 1099.19 356.335 1106.42 362.529 1116.4C368.724 1126.27 371.822 1137.57 371.822 1150.3C371.822 1161.54 369.24 1171.81 364.078 1181.1C358.801 1190.39 351.517 1197.79 342.225 1203.3C332.933 1208.69 322.436 1211.39 310.735 1211.39ZM267.028 1052.14H302.131L302.131 1010.84H318.134L318.134 1052.14H354.786V1005.68H370.789V1071.76H251.025V1005.68H267.028L267.028 1052.14ZM245.318 834.951C238.447 836.594 233.293 839.582 229.858 843.914C226.422 848.245 224.705 854.295 224.705 862.062C224.705 873.862 229.26 882.675 238.372 888.501C247.334 894.326 262.271 897.388 283.183 897.687C276.611 893.803 271.532 888.127 267.947 880.659C264.363 873.19 262.57 865.124 262.57 856.461C262.57 846.602 264.736 837.939 269.068 830.47C273.25 822.852 279.374 816.952 287.44 812.77C295.506 808.438 305.141 806.272 316.343 806.272C326.799 806.272 336.135 808.363 344.35 812.546C352.566 816.579 359.063 822.628 363.843 830.694C368.474 838.76 370.789 848.469 370.789 859.822C370.789 875.207 367.428 887.306 360.707 896.119C353.836 904.782 344.201 910.906 331.803 914.491C319.406 917.927 303.946 919.644 285.424 919.644C230.754 919.644 203.419 900.376 203.419 861.838C203.419 846.901 207.452 835.175 215.518 826.661C223.584 817.998 233.517 812.919 245.318 811.425V834.951ZM284.079 862.062C284.079 871.174 286.843 878.941 292.369 885.364C297.747 891.637 305.589 894.774 315.895 894.774C326.202 894.774 334.417 891.862 340.542 886.036C346.516 880.061 349.504 871.771 349.504 861.166C349.504 851.756 346.591 844.362 340.766 838.984C334.94 833.458 327.173 830.694 317.464 830.694C307.307 830.694 299.241 833.383 293.266 838.76C287.142 843.988 284.079 851.756 284.079 862.062ZM286.992 779.027C261.151 779.027 240.986 774.695 226.497 766.031C211.859 757.219 204.54 742.132 204.54 720.772C204.54 699.412 211.859 684.4 226.497 675.737C240.986 666.924 261.151 662.518 286.992 662.518C313.132 662.518 333.596 666.924 348.383 675.737C363.022 684.4 370.341 699.412 370.341 720.772C370.341 742.132 363.022 757.219 348.383 766.031C333.596 774.695 313.132 779.027 286.992 779.027ZM286.992 687.612C274.893 687.612 264.661 688.433 256.297 690.076C247.932 691.57 241.135 694.707 235.907 699.487C230.53 704.267 227.841 711.362 227.841 720.772C227.841 730.182 230.53 737.278 235.907 742.057C241.135 746.837 247.932 750.049 256.297 751.692C264.661 753.186 274.893 753.932 286.992 753.932C299.539 753.932 310.07 753.186 318.584 751.692C327.098 750.198 333.969 747.061 339.197 742.281C344.425 737.352 347.039 730.182 347.039 720.772C347.039 711.362 344.425 704.267 339.197 699.487C333.969 694.558 327.098 691.346 318.584 689.852C310.07 688.359 299.539 687.612 286.992 687.612ZM309.174 583.286L370.789 526.376V560.88L317.688 606.588H370.789V632.13H204.988V606.588H301.332L247.334 561.776V526.376L309.174 583.286Z" fill="#D35C39"/>
<path d="M1647.81 380.632C1628.32 370.892 1618.58 355.531 1618.58 334.551C1618.58 324.435 1621.11 315.163 1626.17 306.733C1631.23 298.304 1638.81 291.654 1648.93 286.783C1659.04 281.726 1671.41 279.197 1686.02 279.197C1700.44 279.197 1712.71 281.726 1722.83 286.783C1733.13 291.654 1740.81 298.304 1745.87 306.733C1750.93 315.163 1753.46 324.435 1753.46 334.551C1753.46 345.041 1750.74 354.313 1745.31 362.368C1740.06 370.236 1733.04 376.324 1724.23 380.632C1734.91 384.566 1743.34 391.029 1749.52 400.02C1755.7 408.824 1758.79 419.221 1758.79 431.21C1758.79 443.386 1755.7 454.157 1749.52 463.523C1743.34 472.889 1734.72 480.101 1723.67 485.159C1712.62 490.216 1700.07 492.745 1686.02 492.745C1671.97 492.745 1659.42 490.216 1648.37 485.159C1637.5 480.101 1628.98 472.889 1622.8 463.523C1616.62 454.157 1613.53 443.386 1613.53 431.21C1613.53 419.034 1616.62 408.543 1622.8 399.739C1628.98 390.935 1637.32 384.566 1647.81 380.632ZM1722.83 338.485C1722.83 327.995 1719.55 319.94 1712.99 314.32C1706.44 308.7 1697.45 305.89 1686.02 305.89C1674.78 305.89 1665.88 308.7 1659.33 314.32C1652.77 319.94 1649.49 328.088 1649.49 338.766C1649.49 348.132 1652.86 355.812 1659.61 361.806C1666.54 367.613 1675.34 370.517 1686.02 370.517C1696.7 370.517 1705.5 367.52 1712.43 361.525C1719.36 355.531 1722.83 347.851 1722.83 338.485ZM1686.02 394.682C1673.66 394.682 1663.54 397.772 1655.67 403.954C1647.99 409.948 1644.15 418.659 1644.15 430.086C1644.15 440.763 1647.9 449.474 1655.39 456.217C1662.88 462.774 1673.09 466.052 1686.02 466.052C1698.76 466.052 1708.78 462.68 1716.08 455.936C1723.58 449.193 1727.32 440.576 1727.32 430.086C1727.32 418.846 1723.48 410.136 1715.8 403.954C1708.31 397.772 1698.38 394.682 1686.02 394.682ZM1792.43 382.599C1792.43 350.192 1797.86 324.904 1808.72 306.733C1819.78 288.376 1838.7 279.197 1865.48 279.197C1892.27 279.197 1911.1 288.376 1921.96 306.733C1933.01 324.904 1938.54 350.192 1938.54 382.599C1938.54 415.381 1933.01 441.044 1921.96 459.589C1911.1 477.947 1892.27 487.126 1865.48 487.126C1838.7 487.126 1819.78 477.947 1808.72 459.589C1797.86 441.044 1792.43 415.381 1792.43 382.599ZM1907.07 382.599C1907.07 367.426 1906.04 354.594 1903.98 344.104C1902.1 333.614 1898.17 325.091 1892.18 318.535C1886.18 311.791 1877.28 308.419 1865.48 308.419C1853.68 308.419 1844.78 311.791 1838.79 318.535C1832.79 325.091 1828.77 333.614 1826.71 344.104C1824.83 354.594 1823.9 367.426 1823.9 382.599C1823.9 398.334 1824.83 411.541 1826.71 422.218C1828.58 432.895 1832.51 441.512 1838.51 448.069C1844.69 454.625 1853.68 457.903 1865.48 457.903C1877.28 457.903 1886.18 454.625 1892.18 448.069C1898.36 441.512 1902.39 432.895 1904.26 422.218C1906.13 411.541 1907.07 398.334 1907.07 382.599ZM2037.9 410.417L2109.27 487.688H2066L2008.68 421.094V487.688H1976.65V279.759H2008.68V400.582L2064.88 332.865H2109.27L2037.9 410.417Z" fill="#D35C39"/>
</svg>
