<svg width="362" height="719" viewBox="0 0 362 719" fill="none" xmlns="http://www.w3.org/2000/svg">
<path fill-rule="evenodd" clip-rule="evenodd" d="M44.1851 431.284C105.505 490.661 223.199 607.767 256.114 700.586C278.304 616.698 206.681 528.175 172.35 485.744C167.239 479.426 162.954 474.13 159.928 470.023C159.928 470.023 159.533 469.617 159.102 468.816C175.289 464.378 194.427 457.908 214.598 449.828C240.567 439.426 263.453 428.275 279.678 418.55C283.164 436.074 284.23 473.24 281 499L281 500C316.796 466.822 376.392 277.937 261.522 194.071C282.028 231.584 289.136 287.402 280.5 335C271.864 382.598 227.889 400.437 197.523 401.5C148.395 403.22 94.5257 375.146 93.9124 324.084C93.4284 283.789 132.065 258.374 169.029 234.06C178.906 227.563 188.663 221.145 197.523 214.542C201.984 211.218 207.162 207.669 212.77 203.826C259.982 171.47 337.655 118.239 274.204 2.21543C294.195 76.7411 242.276 129.031 120.392 196.897C-78.7024 307.755 92.7899 427.242 138.997 428.16C120.784 440.289 71.5389 437.252 44.1851 431.284Z" fill="#1F1F1F"/>
<path fill-rule="evenodd" clip-rule="evenodd" d="M161.591 367.282C187.234 383.239 221.116 375.133 237.267 349.176C253.418 323.22 245.723 289.243 220.079 273.286C194.436 257.329 160.554 265.436 144.403 291.392C131.471 312.175 133.827 338.101 148.444 355.801C153.474 348.118 160.083 339.495 167.415 332.777C177.023 323.973 184.738 317.994 194.999 314C191.455 326.975 187.596 335.191 180.693 344.603C176.009 350.99 169.923 357.928 161.582 367.277C161.585 367.279 161.588 367.281 161.591 367.282Z" fill="#1F1F1F"/>
</svg>
