<svg
  width="75"
  height="75"
  viewBox="0 0 75 75"
  fill="none"
  xmlns="http://www.w3.org/2000/svg"
>
  <g clip-path="url(#clip0_301_2)">
  <path
      fill-rule="evenodd"
      clip-rule="evenodd"
      d="M37.5 75C58.1969 75 75 58.1969 75 37.5C75 16.8031 58.1969 0 37.5 0C16.8031 0 0 16.8031 0 37.5C0 58.1969 16.8031 75 37.5 75ZM37.5 71.875C56.4719 71.875 71.875 56.4719 71.875 37.5C71.875 18.5281 56.4719 3.125 37.5 3.125C18.5281 3.125 3.125 18.5281 3.125 37.5C3.125 56.4719 18.5281 71.875 37.5 71.875ZM22.4125 35.9375L36.8125 24.1781L34.6906 21.875L15.625 37.5L34.725 53.125L36.8062 50.7719L22.4187 39.0625L59.375 39.0625L59.375 35.9375L22.4125 35.9375Z"
      fill="white"
    />
  </g>
  <defs>
  <clipPath id="clip0_301_2">
  <rect
        width="75"
        height="75"
        fill="white"
        transform="matrix(-1 0 0 -1 75 75)"
      />
  </clipPath>
  </defs>
  </svg>
