<svg width="76" height="75" viewBox="0 0 76 75" fill="none" xmlns="http://www.w3.org/2000/svg">
  <path fill-rule="evenodd" clip-rule="evenodd" d="M38.125 75C58.8219 75 75.625 58.1969 75.625 37.5C75.625 16.8031 58.8219 0 38.125 0C17.4281 0 0.625 16.8031 0.625 37.5C0.625 58.1969 17.4281 75 38.125 75ZM38.125 71.875C57.0969 71.875 72.5 56.4719 72.5 37.5C72.5 18.5281 57.0969 3.125 38.125 3.125C19.1531 3.125 3.75 18.5281 3.75 37.5C3.75 56.4719 19.1531 71.875 38.125 71.875ZM23.0375 35.9375L37.4375 24.1781L35.3156 21.875L16.25 37.5L35.35 53.125L37.4312 50.7719L23.0437 39.0625L60 39.0625V35.9375L23.0375 35.9375Z" fill="black"/>
  </svg>
  