<svg width="2895" height="2059" viewBox="0 0 2895 2059" fill="none" xmlns="http://www.w3.org/2000/svg">
<path d="M548.852 569.054H510.801V913.719H461.721V569.054H423.67V528.246H548.852V569.054ZM612.516 917.028C605.898 917.028 599.281 915.925 592.663 913.719C586.046 911.513 579.98 908.204 574.465 903.792C569.318 899.013 565.09 892.947 561.781 885.594C558.84 878.241 557.37 869.602 557.37 859.675V582.289C557.37 572.363 558.84 563.723 561.781 556.37C565.09 549.018 569.318 543.135 574.465 538.724C579.98 533.944 586.046 530.452 592.663 528.246C599.281 526.04 605.898 524.937 612.516 524.937H622.442C629.427 524.937 636.229 526.04 642.846 528.246C649.464 530.452 655.346 533.944 660.493 538.724C665.64 543.135 669.684 549.018 672.625 556.37C675.934 563.723 677.589 572.363 677.589 582.289V859.675C677.589 869.602 675.934 878.241 672.625 885.594C669.684 892.947 665.64 899.013 660.493 903.792C655.346 908.204 649.464 911.513 642.846 913.719C636.229 915.925 629.427 917.028 622.442 917.028H612.516ZM616.376 565.745C609.759 565.745 606.45 573.65 606.45 589.458V852.506C606.45 868.315 609.759 876.219 616.376 876.219H618.582C625.2 876.219 628.508 868.315 628.508 852.506V589.458C628.508 573.65 625.2 565.745 618.582 565.745H616.376ZM811.12 569.054H773.069V913.719H723.989V569.054H685.938V528.246H811.12V569.054ZM874.608 814.455H848.137L840.417 913.719H797.954L831.593 528.246H893.909L929.754 913.719H882.879L874.608 814.455ZM851.446 777.507H871.85L862.475 662.251H860.821L851.446 777.507ZM987.748 528.246V877.322H1032.97V913.719H938.668V528.246H987.748ZM512.068 1030.25C527.509 1030.25 540.376 1035.21 550.67 1045.14C561.332 1055.06 566.663 1069.03 566.663 1087.05V1212.78C566.663 1230.43 561.516 1242.74 551.222 1249.73C541.295 1256.71 528.612 1260.21 513.171 1260.21H495.524V1415.72H446.444V1030.25H512.068ZM517.582 1094.77C517.582 1078.96 514.09 1071.05 507.105 1071.05H495.524V1219.4H508.207C514.457 1219.4 517.582 1212.04 517.582 1197.34V1094.77ZM701.836 1185.76C701.836 1197.52 699.998 1206.35 696.321 1212.23C692.645 1217.74 688.049 1221.42 682.535 1223.26C688.049 1224.73 692.645 1228.41 696.321 1234.29C699.998 1239.8 701.836 1248.44 701.836 1260.21V1343.48C701.836 1369.95 702.755 1388.51 704.593 1399.17C706.799 1409.47 708.269 1414.98 709.005 1415.72H659.925C656.983 1411.31 654.961 1403.4 653.858 1392.01C653.123 1380.61 652.756 1364.43 652.756 1343.48V1264.62C652.756 1249.18 649.631 1241.46 643.381 1241.46H630.697V1415.72H581.617V1030.25H647.241C662.682 1030.25 675.549 1035.21 685.843 1045.14C696.505 1055.06 701.836 1069.03 701.836 1087.05V1185.76ZM643.381 1205.06C649.631 1205.06 652.756 1197.71 652.756 1183V1094.77C652.756 1078.96 649.263 1071.05 642.278 1071.05H630.697V1205.06H643.381ZM769.64 1030.25V1415.72H720.56V1030.25H769.64ZM902.095 1415.72H781.324V1379.32L847.5 1066.64H791.802V1030.25H896.58V1066.64L830.404 1379.32H902.095V1415.72ZM962.975 1071.05V1205.06H999.923V1241.46H962.975V1374.91H1013.71V1415.72H913.895V1030.25H1009.85V1071.05H962.975Z" fill="#1F1F1F"/>
<path d="M1209.43 1419.27C1194.32 1419.27 1179.22 1416.75 1164.11 1411.72C1149.01 1406.68 1135.16 1399.13 1122.58 1389.06C1110.83 1378.15 1101.18 1364.31 1093.63 1347.53C1086.91 1330.74 1083.56 1311.02 1083.56 1288.37V1046.7H1195.58V1272C1195.58 1308.09 1203.13 1326.13 1218.24 1326.13H1223.27C1238.37 1326.13 1245.93 1308.09 1245.93 1272V1002.65C1245.93 982.507 1243.83 968.661 1239.63 961.109C1236.28 952.718 1230.82 948.522 1223.27 948.522H1218.24C1203.97 948.522 1196.42 963.207 1195.58 992.576V1011.46H1083.56V531.897H1356.69L1346.62 625.04H1195.58V898.175C1204.81 883.91 1215.72 873.421 1228.31 866.708C1240.89 859.156 1253.06 855.38 1264.81 855.38H1272.36C1294.18 855.38 1313.9 865.869 1331.52 886.847C1349.14 906.986 1357.95 940.131 1357.95 986.283V1288.37C1357.95 1311.02 1354.17 1330.74 1346.62 1347.53C1339.91 1364.31 1330.68 1378.15 1318.93 1389.06C1307.18 1399.13 1293.76 1406.68 1278.65 1411.72C1263.55 1416.75 1248.02 1419.27 1232.08 1419.27H1209.43ZM1504.13 531.897V1328.65H1607.35V1411.72H1392.11V531.897H1504.13ZM1752.75 933.418V784.893H1838.35V933.418H1966.73V1008.94H1838.35V1157.46H1752.75V1008.94H1626.89V933.418H1752.75Z" fill="#1F1F1F"/>
<path d="M1723.76 528.449V637.846H1705.81V562.92L1672.44 637.846H1660.01L1626.48 562.92V637.846H1608.53V528.449H1627.9L1666.3 614.235L1704.55 528.449H1723.76ZM1765.28 528.449V637.846H1747.34V528.449H1765.28ZM1904.07 528.449V637.846H1886.12V562.92L1852.75 637.846H1840.32L1806.79 562.92V637.846H1788.84V528.449H1808.2L1846.61 614.235L1884.86 528.449H1904.07ZM1945.59 542.93V575.041H1983.37V589.679H1945.59V623.207H1988.09V637.846H1927.65V528.291H1988.09V542.93H1945.59ZM2058.64 613.448C2068.71 604.738 2076.64 597.602 2082.41 592.041C2088.29 586.374 2093.16 580.497 2097.05 574.411C2100.93 568.325 2102.87 562.238 2102.87 556.152C2102.87 549.856 2101.35 544.924 2098.31 541.356C2095.37 537.788 2090.7 536.004 2084.3 536.004C2078.11 536.004 2073.28 537.998 2069.82 541.985C2066.46 545.868 2064.67 551.115 2064.46 557.726H2047.15C2047.46 545.763 2051.03 536.634 2057.85 530.337C2064.78 523.936 2073.54 520.736 2084.14 520.736C2095.58 520.736 2104.5 523.884 2110.9 530.18C2117.41 536.476 2120.66 544.871 2120.66 555.365C2120.66 562.92 2118.72 570.214 2114.83 577.244C2111.06 584.17 2106.49 590.414 2101.14 595.976C2095.89 601.432 2089.18 607.781 2080.99 615.022L2073.91 621.318H2123.81V636.272H2047.31V623.207L2058.64 613.448ZM2213.55 538.523H2160.82V569.846C2163.02 566.908 2166.28 564.442 2170.58 562.448C2174.99 560.454 2179.66 559.458 2184.59 559.458C2193.4 559.458 2200.54 561.346 2206 565.124C2211.56 568.902 2215.49 573.677 2217.8 579.448C2220.21 585.22 2221.42 591.306 2221.42 597.707C2221.42 605.473 2219.9 612.398 2216.86 618.485C2213.92 624.466 2209.46 629.188 2203.48 632.651C2197.6 636.114 2190.36 637.846 2181.76 637.846C2170.32 637.846 2161.13 635.012 2154.21 629.346C2147.28 623.679 2143.14 616.176 2141.77 606.837H2159.25C2160.4 611.769 2162.97 615.704 2166.96 618.642C2170.95 621.475 2175.93 622.892 2181.91 622.892C2189.36 622.892 2194.92 620.636 2198.6 616.124C2202.38 611.611 2204.26 605.63 2204.26 598.179C2204.26 590.624 2202.38 584.852 2198.6 580.865C2194.82 576.772 2189.26 574.726 2181.91 574.726C2176.77 574.726 2172.42 576.038 2168.85 578.661C2165.38 581.18 2162.87 584.643 2161.29 589.05H2144.29V522.782H2213.55V538.523ZM2276.78 594.559L2316.76 637.846H2292.52L2260.41 600.54V637.846H2242.46V521.365H2260.41V589.05L2291.89 551.115H2316.76L2276.78 594.559Z" fill="#D35C39"/>
<path d="M429.061 434.506C429.061 422.169 431.903 411.102 437.588 401.305C443.393 391.508 451.194 383.888 460.991 378.446C470.909 372.882 481.734 370.1 493.466 370.1C506.891 370.1 518.805 373.426 529.206 380.079C539.729 386.61 547.349 395.923 552.066 408.018H527.211C523.945 401.366 519.41 396.407 513.604 393.141C507.799 389.875 501.086 388.243 493.466 388.243C485.121 388.243 477.682 390.117 471.151 393.867C464.62 397.616 459.479 402.998 455.73 410.013C452.102 417.028 450.287 425.193 450.287 434.506C450.287 443.819 452.102 451.983 455.73 458.998C459.479 466.013 464.62 471.455 471.151 475.326C477.682 479.075 485.121 480.95 493.466 480.95C501.086 480.95 507.799 479.317 513.604 476.051C519.41 472.786 523.945 467.827 527.211 461.175H552.066C547.349 473.27 539.729 482.583 529.206 489.114C518.805 495.645 506.891 498.911 493.466 498.911C481.613 498.911 470.788 496.189 460.991 490.747C451.194 485.183 443.393 477.503 437.588 467.706C431.903 457.909 429.061 446.842 429.061 434.506ZM676.964 371.733V497.822H656.282V442.67H596.957V497.822H576.274V371.733H596.957V425.797H656.282V371.733H676.964ZM761.703 499.092C749.971 499.092 739.146 496.371 729.228 490.928C719.432 485.365 711.63 477.684 705.825 467.887C700.14 457.97 697.298 446.842 697.298 434.506C697.298 422.169 700.14 411.102 705.825 401.305C711.63 391.508 719.432 383.888 729.228 378.446C739.146 372.882 749.971 370.1 761.703 370.1C773.556 370.1 784.381 372.882 794.178 378.446C804.096 383.888 811.897 391.508 817.581 401.305C823.266 411.102 826.108 422.169 826.108 434.506C826.108 446.842 823.266 457.97 817.581 467.887C811.897 477.684 804.096 485.365 794.178 490.928C784.381 496.371 773.556 499.092 761.703 499.092ZM761.703 481.131C770.049 481.131 777.487 479.257 784.018 475.507C790.549 471.637 795.629 466.194 799.258 459.179C803.007 452.043 804.882 443.819 804.882 434.506C804.882 425.193 803.007 417.028 799.258 410.013C795.629 402.998 790.549 397.616 784.018 393.867C777.487 390.117 770.049 388.243 761.703 388.243C753.358 388.243 745.919 390.117 739.388 393.867C732.857 397.616 727.717 402.998 723.967 410.013C720.339 417.028 718.524 425.193 718.524 434.506C718.524 443.819 720.339 452.043 723.967 459.179C727.717 466.194 732.857 471.637 739.388 475.507C745.919 479.257 753.358 481.131 761.703 481.131ZM911.954 497.822L882.926 447.387H867.143V497.822H846.46V371.733H890.002C899.678 371.733 907.842 373.426 914.494 376.813C921.267 380.2 926.287 384.735 929.552 390.42C932.939 396.104 934.632 402.454 934.632 409.469C934.632 417.694 932.213 425.193 927.375 431.966C922.658 438.618 915.341 443.153 905.423 445.572L936.628 497.822H911.954ZM867.143 430.877H890.002C897.743 430.877 903.548 428.942 907.419 425.072C911.41 421.201 913.406 416 913.406 409.469C913.406 402.938 911.47 397.858 907.6 394.23C903.73 390.48 897.864 388.605 890.002 388.605H867.143V430.877ZM981.772 388.424V425.434H1025.31V442.307H981.772V480.95H1030.76V497.822H961.09V371.552H1030.76V388.424H981.772ZM1113.74 499.092C1102.01 499.092 1091.19 496.371 1081.27 490.928C1071.47 485.365 1063.67 477.684 1057.86 467.887C1052.18 457.97 1049.34 446.842 1049.34 434.506C1049.34 422.169 1052.18 411.102 1057.86 401.305C1063.67 391.508 1071.47 383.888 1081.27 378.446C1091.19 372.882 1102.01 370.1 1113.74 370.1C1125.6 370.1 1136.42 372.882 1146.22 378.446C1156.13 383.888 1163.94 391.508 1169.62 401.305C1175.31 411.102 1178.15 422.169 1178.15 434.506C1178.15 446.842 1175.31 457.97 1169.62 467.887C1163.94 477.684 1156.13 485.365 1146.22 490.928C1136.42 496.371 1125.6 499.092 1113.74 499.092ZM1113.74 481.131C1122.09 481.131 1129.53 479.257 1136.06 475.507C1142.59 471.637 1147.67 466.194 1151.3 459.179C1155.05 452.043 1156.92 443.819 1156.92 434.506C1156.92 425.193 1155.05 417.028 1151.3 410.013C1147.67 402.998 1142.59 397.616 1136.06 393.867C1129.53 390.117 1122.09 388.243 1113.74 388.243C1105.4 388.243 1097.96 390.117 1091.43 393.867C1084.9 397.616 1079.76 402.998 1076.01 410.013C1072.38 417.028 1070.56 425.193 1070.56 434.506C1070.56 443.819 1072.38 452.043 1076.01 459.179C1079.76 466.194 1084.9 471.637 1091.43 475.507C1097.96 479.257 1105.4 481.131 1113.74 481.131ZM1302.09 497.822H1281.41L1219.18 403.664V497.822H1198.5V371.552H1219.18L1281.41 465.529V371.552H1302.09V497.822ZM1349.93 371.733V497.822H1329.25V371.733H1349.93ZM1458.55 371.733V388.605H1424.98V497.822H1404.3V388.605H1370.56V371.733H1458.55ZM1500.17 388.424V425.434H1543.72V442.307H1500.17V480.95H1549.16V497.822H1479.49V371.552H1549.16V388.424H1500.17Z" fill="#D35C39"/>
<path d="M2062.58 932.45V991.981C2062.58 999.348 2060.32 1005.17 2055.81 1009.45C2051.37 1013.73 2045.51 1015.86 2038.22 1015.86C2030.94 1015.86 2025.03 1013.73 2020.52 1009.45C2016.08 1005.17 2013.86 999.348 2013.86 991.981H2027.53C2027.61 995.625 2028.52 998.517 2030.26 1000.66C2032.08 1002.79 2034.74 1003.86 2038.22 1003.86C2041.71 1003.86 2044.36 1002.79 2046.18 1000.66C2048.01 998.437 2048.92 995.546 2048.92 991.981V932.45H2062.58ZM2134.41 998.16H2099.83L2093.89 1015.03H2079.75L2109.33 932.331H2125.02L2154.61 1015.03H2140.35L2134.41 998.16ZM2130.6 987.109L2117.18 948.729L2103.63 987.109H2130.6ZM2254.45 932.45V1015.03H2240.91V958.472L2215.71 1015.03H2206.33L2181.02 958.472V1015.03H2167.47V932.45H2182.09L2211.08 997.209L2239.95 932.45H2254.45ZM2382.65 909.742H2326.75V942.948C2329.09 939.833 2332.53 937.219 2337.09 935.105C2341.77 932.991 2346.72 931.935 2351.95 931.935C2361.29 931.935 2368.85 933.937 2374.64 937.942C2380.54 941.947 2384.71 947.008 2387.15 953.126C2389.71 959.245 2390.99 965.697 2390.99 972.483C2390.99 980.715 2389.38 988.057 2386.15 994.509C2383.04 1000.85 2378.31 1005.86 2371.97 1009.53C2365.74 1013.2 2358.06 1015.03 2348.94 1015.03C2336.82 1015.03 2327.08 1012.03 2319.74 1006.02C2312.4 1000.02 2308 992.062 2306.56 982.161H2325.08C2326.3 987.389 2329.03 991.561 2333.26 994.676C2337.48 997.679 2342.77 999.181 2349.11 999.181C2357.01 999.181 2362.9 996.789 2366.8 992.006C2370.8 987.222 2372.8 980.882 2372.8 972.983C2372.8 964.974 2370.8 958.855 2366.8 954.628C2362.79 950.29 2356.9 948.121 2349.11 948.121C2343.66 948.121 2339.04 949.511 2335.26 952.292C2331.59 954.962 2328.92 958.633 2327.25 963.305H2309.23V893.055H2382.65V909.742ZM2449.67 969.145L2492.06 1015.03H2466.36L2432.32 975.486V1015.03H2413.3V891.553H2432.32V963.305L2465.69 923.091H2492.06L2449.67 969.145Z" fill="#D35C39"/>
<path d="M499.927 1541.62C506.413 1542.78 511.915 1546.19 516.432 1551.87C520.949 1557.54 523.208 1563.97 523.208 1571.15C523.208 1577.29 521.586 1582.85 518.343 1587.83C515.216 1592.7 510.641 1596.58 504.618 1599.47C498.595 1602.25 491.588 1603.64 483.596 1603.64H435.298V1482.9H481.338C489.561 1482.9 496.626 1484.29 502.533 1487.07C508.44 1489.85 512.899 1493.61 515.911 1498.36C518.922 1502.99 520.428 1508.2 520.428 1514C520.428 1520.94 518.575 1526.74 514.868 1531.37C511.162 1536 506.182 1539.42 499.927 1541.62ZM455.104 1533.63H479.6C486.086 1533.63 491.125 1532.18 494.715 1529.28C498.421 1526.27 500.275 1521.99 500.275 1516.43C500.275 1510.98 498.421 1506.76 494.715 1503.75C491.125 1500.62 486.086 1499.05 479.6 1499.05H455.104V1533.63ZM481.859 1587.49C488.577 1587.49 493.846 1585.86 497.669 1582.62C501.491 1579.38 503.402 1574.86 503.402 1569.07C503.402 1563.16 501.375 1558.47 497.321 1555C493.267 1551.52 487.882 1549.78 481.164 1549.78H455.104V1587.49H481.859ZM617.525 1578.97H566.968L558.282 1603.64H537.607L580.867 1482.72H603.8L647.06 1603.64H626.212L617.525 1578.97ZM611.966 1562.81L592.334 1506.7L572.528 1562.81H611.966ZM765.072 1603.64H745.267L685.676 1513.47V1603.64H665.87V1482.72H685.676L745.267 1572.72V1482.72H765.072V1603.64ZM830.519 1482.9C843.375 1482.9 854.61 1485.39 864.223 1490.37C873.953 1495.23 881.423 1502.3 886.635 1511.56C891.963 1520.71 894.627 1531.43 894.627 1543.7C894.627 1555.98 891.963 1566.64 886.635 1575.67C881.423 1584.71 873.953 1591.65 864.223 1596.52C854.61 1601.27 843.375 1603.64 830.519 1603.64H791.081V1482.9H830.519ZM830.519 1587.49C844.649 1587.49 855.479 1583.66 863.007 1576.02C870.536 1568.37 874.3 1557.6 874.3 1543.7C874.3 1529.69 870.536 1518.74 863.007 1510.87C855.479 1502.99 844.649 1499.05 830.519 1499.05H810.887V1587.49H830.519ZM1014.46 1604.86C1003.23 1604.86 992.86 1602.25 983.362 1597.04C973.98 1591.71 966.51 1584.36 960.95 1574.98C955.507 1565.48 952.785 1554.82 952.785 1543.01C952.785 1531.2 955.507 1520.6 960.95 1511.22C966.51 1501.83 973.98 1494.54 983.362 1489.33C992.86 1484 1003.23 1481.33 1014.46 1481.33C1025.81 1481.33 1036.18 1484 1045.56 1489.33C1055.06 1494.54 1062.53 1501.83 1067.97 1511.22C1073.41 1520.6 1076.14 1531.2 1076.14 1543.01C1076.14 1554.82 1073.41 1565.48 1067.97 1574.98C1062.53 1584.36 1055.06 1591.71 1045.56 1597.04C1036.18 1602.25 1025.81 1604.86 1014.46 1604.86ZM1014.46 1587.66C1022.45 1587.66 1029.58 1585.86 1035.83 1582.27C1042.08 1578.57 1046.95 1573.35 1050.42 1566.64C1054.01 1559.8 1055.81 1551.93 1055.81 1543.01C1055.81 1534.09 1054.01 1526.27 1050.42 1519.55C1046.95 1512.84 1042.08 1507.68 1035.83 1504.09C1029.58 1500.5 1022.45 1498.71 1014.46 1498.71C1006.47 1498.71 999.346 1500.5 993.091 1504.09C986.837 1507.68 981.914 1512.84 978.324 1519.55C974.849 1526.27 973.112 1534.09 973.112 1543.01C973.112 1551.93 974.849 1559.8 978.324 1566.64C981.914 1573.35 986.837 1578.57 993.091 1582.27C999.346 1585.86 1006.47 1587.66 1014.46 1587.66ZM1166.68 1482.9V1499.05H1115.43V1534.67H1155.39V1550.83H1115.43V1603.64H1095.63V1482.9H1166.68ZM1294.8 1541.62C1301.28 1542.78 1306.79 1546.19 1311.3 1551.87C1315.82 1557.54 1318.08 1563.97 1318.08 1571.15C1318.08 1577.29 1316.46 1582.85 1313.21 1587.83C1310.09 1592.7 1305.51 1596.58 1299.49 1599.47C1293.47 1602.25 1286.46 1603.64 1278.47 1603.64H1230.17V1482.9H1276.21C1284.43 1482.9 1291.5 1484.29 1297.4 1487.07C1303.31 1489.85 1307.77 1493.61 1310.78 1498.36C1313.79 1502.99 1315.3 1508.2 1315.3 1514C1315.3 1520.94 1313.45 1526.74 1309.74 1531.37C1306.03 1536 1301.05 1539.42 1294.8 1541.62ZM1249.97 1533.63H1274.47C1280.96 1533.63 1286 1532.18 1289.59 1529.28C1293.29 1526.27 1295.15 1521.99 1295.15 1516.43C1295.15 1510.98 1293.29 1506.76 1289.59 1503.75C1286 1500.62 1280.96 1499.05 1274.47 1499.05H1249.97V1533.63ZM1276.73 1587.49C1283.45 1587.49 1288.72 1585.86 1292.54 1582.62C1296.36 1579.38 1298.27 1574.86 1298.27 1569.07C1298.27 1563.16 1296.25 1558.47 1292.19 1555C1288.14 1551.52 1282.75 1549.78 1276.03 1549.78H1249.97V1587.49H1276.73ZM1402.32 1603.64L1374.52 1555.34H1359.41V1603.64H1339.6V1482.9H1381.3C1390.56 1482.9 1398.38 1484.52 1404.75 1487.76C1411.24 1491 1416.04 1495.35 1419.17 1500.79C1422.41 1506.24 1424.04 1512.32 1424.04 1519.03C1424.04 1526.91 1421.72 1534.09 1417.09 1540.58C1412.57 1546.95 1405.56 1551.29 1396.07 1553.61L1425.95 1603.64H1402.32ZM1359.41 1539.53H1381.3C1388.71 1539.53 1394.27 1537.68 1397.98 1533.97C1401.8 1530.27 1403.71 1525.29 1403.71 1519.03C1403.71 1512.78 1401.86 1507.91 1398.15 1504.44C1394.44 1500.85 1388.83 1499.05 1381.3 1499.05H1359.41V1539.53ZM1522.17 1578.97H1471.61L1462.92 1603.64H1442.25L1485.51 1482.72H1508.44L1551.7 1603.64H1530.85L1522.17 1578.97ZM1516.61 1562.81L1496.98 1506.7L1477.17 1562.81H1516.61ZM1666.94 1482.9V1603.64H1647.13V1550.83H1590.32V1603.64H1570.51V1482.9H1590.32V1534.67H1647.13V1482.9H1666.94ZM1820.18 1482.9V1603.64H1800.38V1520.94L1763.55 1603.64H1749.82L1712.82 1520.94V1603.64H1693.01V1482.9H1714.38L1756.77 1577.58L1798.99 1482.9H1820.18ZM1919.01 1578.97H1868.45L1859.77 1603.64H1839.09L1882.35 1482.72H1905.28L1948.54 1603.64H1927.7L1919.01 1578.97ZM1913.45 1562.81L1893.82 1506.7L1874.01 1562.81H1913.45ZM2009.53 1508.26C2010.23 1497.49 2014.34 1489.09 2021.87 1483.07C2029.51 1477.05 2039.24 1474.04 2051.05 1474.04C2059.16 1474.04 2066.17 1475.48 2072.08 1478.38C2077.98 1481.28 2082.44 1485.21 2085.45 1490.19C2088.46 1495.17 2089.97 1500.79 2089.97 1507.05C2089.97 1514.23 2088.06 1520.37 2084.24 1525.46C2080.41 1530.56 2075.84 1533.97 2070.51 1535.71V1536.41C2077.35 1538.49 2082.67 1542.31 2086.5 1547.87C2090.32 1553.32 2092.23 1560.32 2092.23 1568.9C2092.23 1575.73 2090.67 1581.81 2087.54 1587.14C2084.41 1592.47 2079.78 1596.69 2073.64 1599.82C2067.5 1602.83 2060.15 1604.34 2051.57 1604.34C2039.07 1604.34 2028.76 1601.15 2020.65 1594.78C2012.66 1588.3 2008.37 1579.03 2007.79 1566.98H2026.9C2027.37 1573.12 2029.74 1578.16 2034.03 1582.1C2038.31 1585.92 2044.1 1587.83 2051.4 1587.83C2058.47 1587.83 2063.91 1585.92 2067.73 1582.1C2071.55 1578.16 2073.47 1573.12 2073.47 1566.98C2073.47 1558.88 2070.86 1553.14 2065.65 1549.78C2060.55 1546.31 2052.68 1544.57 2042.02 1544.57H2037.5V1528.24H2042.19C2051.57 1528.13 2058.7 1526.56 2063.56 1523.55C2068.54 1520.54 2071.03 1515.79 2071.03 1509.3C2071.03 1503.75 2069.24 1499.34 2065.65 1496.1C2062.06 1492.74 2056.96 1491.06 2050.36 1491.06C2043.87 1491.06 2038.83 1492.74 2035.24 1496.1C2031.65 1499.34 2029.51 1503.4 2028.82 1508.26H2009.53ZM2113.03 1538.67C2113.03 1518.63 2116.39 1502.99 2123.11 1491.76C2129.94 1480.41 2141.64 1474.73 2158.2 1474.73C2174.77 1474.73 2186.41 1480.41 2193.13 1491.76C2199.96 1502.99 2203.38 1518.63 2203.38 1538.67C2203.38 1558.93 2199.96 1574.8 2193.13 1586.27C2186.41 1597.62 2174.77 1603.3 2158.2 1603.3C2141.64 1603.3 2129.94 1597.62 2123.11 1586.27C2116.39 1574.8 2113.03 1558.93 2113.03 1538.67ZM2183.92 1538.67C2183.92 1529.28 2183.28 1521.35 2182.01 1514.86C2180.85 1508.38 2178.42 1503.11 2174.71 1499.05C2171 1494.88 2165.5 1492.8 2158.2 1492.8C2150.91 1492.8 2145.41 1494.88 2141.7 1499.05C2137.99 1503.11 2135.5 1508.38 2134.23 1514.86C2133.07 1521.35 2132.49 1529.28 2132.49 1538.67C2132.49 1548.39 2133.07 1556.56 2134.23 1563.16C2135.39 1569.76 2137.82 1575.09 2141.53 1579.15C2145.35 1583.2 2150.91 1585.23 2158.2 1585.23C2165.5 1585.23 2171 1583.2 2174.71 1579.15C2178.53 1575.09 2181.02 1569.76 2182.18 1563.16C2183.34 1556.56 2183.92 1548.39 2183.92 1538.67ZM2264.81 1555.87L2308.94 1603.64H2282.19L2246.74 1562.47V1603.64H2226.94V1475.08H2246.74V1549.78L2281.49 1507.91H2308.94L2264.81 1555.87Z" fill="#D35C39"/>
<path d="M504.978 1693.93L472.99 1779.11H456.812L424.701 1693.93H439.653L464.901 1764.77L490.271 1693.93H504.978ZM568.016 1761.7H532.351L526.223 1779.11H511.638L542.156 1693.8H558.334L588.851 1779.11H574.144L568.016 1761.7ZM564.094 1750.3L550.245 1710.72L536.273 1750.3H564.094ZM616.093 1767.83H644.895V1779.11H602.121V1693.93H616.093V1767.83ZM695.431 1779.96C687.505 1779.96 680.193 1778.12 673.493 1774.45C666.874 1770.69 661.604 1765.5 657.682 1758.88C653.842 1752.18 651.922 1744.67 651.922 1736.33C651.922 1728 653.842 1720.52 657.682 1713.9C661.604 1707.28 666.874 1702.14 673.493 1698.46C680.193 1694.7 687.505 1692.82 695.431 1692.82C703.438 1692.82 710.751 1694.7 717.37 1698.46C724.07 1702.14 729.34 1707.28 733.18 1713.9C737.02 1720.52 738.94 1728 738.94 1736.33C738.94 1744.67 737.02 1752.18 733.18 1758.88C729.34 1765.5 724.07 1770.69 717.37 1774.45C710.751 1778.12 703.438 1779.96 695.431 1779.96ZM695.431 1767.83C701.069 1767.83 706.094 1766.56 710.506 1764.03C714.918 1761.42 718.35 1757.74 720.801 1753C723.334 1748.18 724.601 1742.62 724.601 1736.33C724.601 1730.04 723.334 1724.52 720.801 1719.79C718.35 1715.05 714.918 1711.41 710.506 1708.88C706.094 1706.34 701.069 1705.08 695.431 1705.08C689.793 1705.08 684.768 1706.34 680.356 1708.88C675.944 1711.41 672.471 1715.05 669.938 1719.79C667.487 1724.52 666.261 1730.04 666.261 1736.33C666.261 1742.62 667.487 1748.18 669.938 1753C672.471 1757.74 675.944 1761.42 680.356 1764.03C684.768 1766.56 689.793 1767.83 695.431 1767.83ZM796.934 1779.11L777.324 1745.03H766.661V1779.11H752.689V1693.93H782.104C788.641 1693.93 794.156 1695.07 798.65 1697.36C803.226 1699.64 806.616 1702.71 808.822 1706.55C811.11 1710.39 812.254 1714.68 812.254 1719.42C812.254 1724.97 810.62 1730.04 807.352 1734.62C804.165 1739.11 799.222 1742.17 792.522 1743.81L813.602 1779.11H796.934ZM766.661 1733.88H782.104C787.333 1733.88 791.255 1732.57 793.87 1729.96C796.566 1727.34 797.915 1723.83 797.915 1719.42C797.915 1715.01 796.607 1711.57 793.993 1709.12C791.378 1706.59 787.415 1705.32 782.104 1705.32H766.661V1733.88ZM881.481 1761.7H845.816L839.688 1779.11H825.103L855.621 1693.8H871.799L902.317 1779.11H887.609L881.481 1761.7ZM877.559 1750.3L863.71 1710.72L849.738 1750.3H877.559ZM985.568 1779.11H971.596L929.558 1715.5V1779.11H915.586V1693.8H929.558L971.596 1757.29V1693.8H985.568V1779.11ZM1058.95 1693.93V1705.32H1036.27V1779.11H1022.3V1705.32H999.504V1693.93H1058.95ZM1172.98 1683.41C1171.73 1678.17 1169.45 1674.24 1166.15 1671.62C1162.84 1669 1158.23 1667.69 1152.3 1667.69C1143.3 1667.69 1136.58 1671.16 1132.14 1678.11C1127.7 1684.95 1125.36 1696.34 1125.13 1712.29C1128.1 1707.28 1132.43 1703.4 1138.12 1700.67C1143.82 1697.93 1149.97 1696.57 1156.58 1696.57C1164.1 1696.57 1170.7 1698.22 1176.4 1701.52C1182.21 1704.71 1186.71 1709.38 1189.9 1715.54C1193.2 1721.69 1194.86 1729.04 1194.86 1737.58C1194.86 1745.55 1193.26 1752.68 1190.07 1758.94C1186.99 1765.21 1182.38 1770.16 1176.23 1773.81C1170.08 1777.34 1162.67 1779.11 1154.01 1779.11C1142.28 1779.11 1133.05 1776.54 1126.33 1771.42C1119.72 1766.18 1115.05 1758.83 1112.32 1749.37C1109.7 1739.92 1108.39 1728.12 1108.39 1714C1108.39 1672.3 1123.08 1651.45 1152.48 1651.45C1163.87 1651.45 1172.81 1654.53 1179.3 1660.68C1185.91 1666.83 1189.79 1674.41 1190.92 1683.41H1172.98ZM1152.3 1712.97C1145.36 1712.97 1139.43 1715.08 1134.53 1719.3C1129.75 1723.4 1127.36 1729.38 1127.36 1737.24C1127.36 1745.1 1129.58 1751.37 1134.02 1756.04C1138.58 1760.59 1144.9 1762.87 1152.99 1762.87C1160.17 1762.87 1165.8 1760.65 1169.91 1756.21C1174.12 1751.76 1176.23 1745.84 1176.23 1738.43C1176.23 1730.69 1174.18 1724.54 1170.08 1719.98C1166.09 1715.31 1160.17 1712.97 1152.3 1712.97ZM1255.45 1732.11L1298.86 1779.11H1272.54L1237.68 1738.61V1779.11H1218.2V1652.65H1237.68V1726.13L1271.86 1684.95H1298.86L1255.45 1732.11Z" fill="#D35C39"/>
<path d="M986.864 284.22V351.354H975.853V305.374L955.375 351.354H947.744L927.169 305.374V351.354H916.157V284.22H928.038L951.607 336.864L975.08 284.22H986.864ZM1012.25 284.22V327.012C1012.25 332.099 1013.57 335.931 1016.21 338.506C1018.92 341.082 1022.65 342.37 1027.42 342.37C1032.25 342.37 1035.98 341.082 1038.62 338.506C1041.33 335.931 1042.68 332.099 1042.68 327.012V284.22H1053.69V326.818C1053.69 332.292 1052.5 336.929 1050.12 340.728C1047.74 344.527 1044.55 347.361 1040.56 349.228C1036.56 351.096 1032.15 352.03 1027.32 352.03C1022.49 352.03 1018.08 351.096 1014.09 349.228C1010.16 347.361 1007.04 344.527 1004.72 340.728C1002.4 336.929 1001.24 332.292 1001.24 326.818V284.22H1012.25ZM1089.96 284.22C1097.1 284.22 1103.35 285.605 1108.7 288.374C1114.11 291.078 1118.26 295.007 1121.16 300.158C1124.12 305.246 1125.6 311.202 1125.6 318.028C1125.6 324.854 1124.12 330.779 1121.16 335.802C1118.26 340.825 1114.11 344.688 1108.7 347.393C1103.35 350.033 1097.1 351.354 1089.96 351.354H1068.03V284.22H1089.96ZM1089.96 342.37C1097.81 342.37 1103.83 340.245 1108.02 335.995C1112.21 331.745 1114.3 325.756 1114.3 318.028C1114.3 310.236 1112.21 304.151 1108.02 299.772C1103.83 295.393 1097.81 293.203 1089.96 293.203H1079.04V342.37H1089.96ZM1190.12 284.22V351.354H1179.11V321.989H1147.53V351.354H1136.51V284.22H1147.53V313.005H1179.11V284.22H1190.12ZM1239.49 351.354L1224.04 324.5H1215.63V351.354H1204.62V284.22H1227.8C1232.96 284.22 1237.3 285.122 1240.84 286.925C1244.45 288.728 1247.12 291.143 1248.86 294.169C1250.66 297.196 1251.57 300.577 1251.57 304.312C1251.57 308.691 1250.28 312.683 1247.7 316.29C1245.19 319.831 1241.29 322.246 1236.01 323.534L1252.63 351.354H1239.49ZM1215.63 315.71H1227.8C1231.93 315.71 1235.02 314.68 1237.08 312.619C1239.2 310.558 1240.26 307.789 1240.26 304.312C1240.26 300.834 1239.23 298.13 1237.17 296.198C1235.11 294.202 1231.99 293.203 1227.8 293.203H1215.63V315.71ZM1306.13 337.637H1278.02L1273.19 351.354H1261.69L1285.74 284.123H1298.5L1322.55 351.354H1310.96L1306.13 337.637ZM1303.04 328.654L1292.12 297.454L1281.11 328.654H1303.04ZM1357.38 289.545C1357.83 282.565 1360.5 277.124 1365.38 273.221C1370.33 269.318 1376.63 267.366 1384.29 267.366C1389.54 267.366 1394.08 268.305 1397.91 270.181C1401.74 272.057 1404.63 274.609 1406.58 277.837C1408.53 281.064 1409.51 284.704 1409.51 288.757C1409.51 293.411 1408.27 297.389 1405.79 300.691C1403.32 303.993 1400.35 306.208 1396.9 307.333V307.784C1401.33 309.135 1404.78 311.612 1407.26 315.214C1409.73 318.742 1410.97 323.283 1410.97 328.837C1410.97 333.265 1409.96 337.206 1407.93 340.658C1405.91 344.111 1402.9 346.85 1398.93 348.877C1394.95 350.828 1390.18 351.804 1384.63 351.804C1376.52 351.804 1369.84 349.74 1364.59 345.612C1359.41 341.409 1356.63 335.404 1356.26 327.598H1368.64C1368.94 331.576 1370.48 334.841 1373.26 337.393C1376.03 339.87 1379.79 341.108 1384.52 341.108C1389.09 341.108 1392.62 339.87 1395.1 337.393C1397.57 334.841 1398.81 331.576 1398.81 327.598C1398.81 322.345 1397.12 318.629 1393.75 316.453C1390.44 314.201 1385.34 313.075 1378.44 313.075H1375.51V302.492H1378.55C1384.63 302.417 1389.24 301.404 1392.4 299.453C1395.62 297.501 1397.24 294.424 1397.24 290.221C1397.24 286.618 1396.07 283.766 1393.75 281.664C1391.42 279.488 1388.12 278.4 1383.84 278.4C1379.64 278.4 1376.37 279.488 1374.04 281.664C1371.72 283.766 1370.33 286.393 1369.88 289.545H1357.38ZM1440.44 329.062C1441.19 332.815 1442.81 335.667 1445.28 337.618C1447.76 339.57 1451.1 340.546 1455.3 340.546C1460.63 340.546 1464.53 338.444 1467.01 334.241C1469.49 330.038 1470.73 322.87 1470.73 312.737C1468.92 315.289 1466.37 317.278 1463.07 318.704C1459.84 320.055 1456.32 320.731 1452.49 320.731C1447.61 320.731 1443.18 319.755 1439.2 317.804C1435.22 315.777 1432.07 312.812 1429.75 308.91C1427.49 304.932 1426.37 300.128 1426.37 294.499C1426.37 286.243 1428.77 279.675 1433.57 274.797C1438.45 269.843 1445.13 267.366 1453.61 267.366C1463.82 267.366 1471.06 270.781 1475.34 277.611C1479.69 284.366 1481.87 294.762 1481.87 308.797C1481.87 318.479 1481.05 326.398 1479.39 332.552C1477.82 338.707 1475.04 343.36 1471.06 346.512C1467.09 349.665 1461.57 351.241 1454.51 351.241C1446.48 351.241 1440.29 349.139 1435.94 344.936C1431.58 340.733 1429.15 335.442 1428.62 329.062H1440.44ZM1454.74 309.923C1459.24 309.923 1462.77 308.534 1465.32 305.757C1467.95 302.905 1469.26 299.152 1469.26 294.499C1469.26 289.32 1467.87 285.305 1465.1 282.453C1462.39 279.525 1458.68 278.062 1453.95 278.062C1449.22 278.062 1445.47 279.563 1442.69 282.565C1439.99 285.492 1438.64 289.358 1438.64 294.161C1438.64 298.74 1439.95 302.53 1442.58 305.532C1445.28 308.459 1449.33 309.923 1454.74 309.923ZM1522.15 320.393L1550.75 351.354H1533.41L1510.44 324.671V351.354H1497.61V268.042H1510.44V316.453L1532.96 289.32H1550.75L1522.15 320.393Z" fill="#D35C39"/>
<path d="M1701.25 1412.58L1683.48 1381.7H1673.81V1412.58H1661.15V1335.37H1687.81C1693.74 1335.37 1698.74 1336.4 1702.81 1338.48C1706.96 1340.55 1710.03 1343.33 1712.03 1346.81C1714.1 1350.29 1715.14 1354.18 1715.14 1358.47C1715.14 1363.51 1713.66 1368.1 1710.7 1372.25C1707.81 1376.33 1703.33 1379.1 1697.25 1380.58L1716.36 1412.58H1701.25ZM1673.81 1371.58H1687.81C1692.55 1371.58 1696.11 1370.4 1698.48 1368.03C1700.92 1365.66 1702.14 1362.47 1702.14 1358.47C1702.14 1354.48 1700.96 1351.36 1698.59 1349.14C1696.22 1346.85 1692.62 1345.7 1687.81 1345.7H1673.81V1371.58ZM1744.01 1345.59V1368.25H1770.68V1378.58H1744.01V1402.25H1774.01V1412.58H1731.34V1335.25H1774.01V1345.59H1744.01ZM1853.05 1412.58H1840.38L1802.27 1354.92V1412.58H1789.61V1335.25H1802.27L1840.38 1392.81V1335.25H1853.05V1412.58ZM1882.35 1345.59V1368.25H1909.01V1378.58H1882.35V1402.25H1912.34V1412.58H1869.68V1335.25H1912.34V1345.59H1882.35ZM1983.83 1357.59C1981.83 1353.73 1979.05 1350.85 1975.5 1348.92C1971.94 1346.92 1967.83 1345.92 1963.16 1345.92C1958.05 1345.92 1953.5 1347.07 1949.5 1349.36C1945.5 1351.66 1942.35 1354.92 1940.06 1359.14C1937.83 1363.36 1936.72 1368.25 1936.72 1373.81C1936.72 1379.36 1937.83 1384.29 1940.06 1388.58C1942.35 1392.81 1945.5 1396.06 1949.5 1398.36C1953.5 1400.66 1958.05 1401.81 1963.16 1401.81C1970.05 1401.81 1975.65 1399.88 1979.94 1396.03C1984.24 1392.18 1986.87 1386.95 1987.83 1380.36H1958.83V1370.25H2001.38V1380.14C2000.57 1386.14 1998.42 1391.66 1994.94 1396.69C1991.53 1401.73 1987.05 1405.77 1981.5 1408.8C1976.02 1411.77 1969.9 1413.25 1963.16 1413.25C1955.91 1413.25 1949.28 1411.58 1943.28 1408.25C1937.28 1404.84 1932.5 1400.14 1928.94 1394.14C1925.46 1388.14 1923.72 1381.36 1923.72 1373.81C1923.72 1366.25 1925.46 1359.47 1928.94 1353.48C1932.5 1347.48 1937.28 1342.81 1943.28 1339.48C1949.35 1336.07 1955.98 1334.37 1963.16 1334.37C1971.39 1334.37 1978.68 1336.4 1985.05 1340.48C1991.5 1344.48 1996.16 1350.18 1999.05 1357.59H1983.83ZM2060.43 1396.81H2028.1L2022.54 1412.58H2009.32L2036.99 1335.25H2051.65L2079.32 1412.58H2065.98L2060.43 1396.81ZM2056.87 1386.47L2044.32 1350.59L2031.65 1386.47H2056.87ZM2116.57 1335.37C2124.79 1335.37 2131.97 1336.96 2138.12 1340.14C2144.34 1343.25 2149.12 1347.77 2152.45 1353.7C2155.86 1359.55 2157.56 1366.4 2157.56 1374.25C2157.56 1382.1 2155.86 1388.92 2152.45 1394.69C2149.12 1400.47 2144.34 1404.92 2138.12 1408.03C2131.97 1411.06 2124.79 1412.58 2116.57 1412.58H2091.34V1335.37H2116.57ZM2116.57 1402.25C2125.6 1402.25 2132.53 1399.81 2137.34 1394.92C2142.16 1390.03 2144.56 1383.14 2144.56 1374.25C2144.56 1365.29 2142.16 1358.29 2137.34 1353.25C2132.53 1348.22 2125.6 1345.7 2116.57 1345.7H2104.01V1402.25H2116.57ZM2182.78 1345.59V1368.25H2209.45V1378.58H2182.78V1402.25H2212.78V1412.58H2170.11V1335.25H2212.78V1345.59H2182.78ZM2270.67 1385.16C2281.99 1375.37 2290.9 1367.35 2297.38 1361.1C2303.99 1354.73 2309.47 1348.13 2313.84 1341.28C2318.2 1334.44 2320.38 1327.6 2320.38 1320.76C2320.38 1313.69 2318.67 1308.14 2315.25 1304.13C2311.95 1300.12 2306.7 1298.12 2299.51 1298.12C2292.55 1298.12 2287.12 1300.36 2283.23 1304.84C2279.45 1309.2 2277.45 1315.1 2277.21 1322.53H2257.75C2258.11 1309.09 2262.12 1298.82 2269.78 1291.75C2277.57 1284.55 2287.42 1280.96 2299.33 1280.96C2312.18 1280.96 2322.21 1284.49 2329.4 1291.57C2336.72 1298.65 2340.37 1308.08 2340.37 1319.88C2340.37 1328.37 2338.19 1336.57 2333.83 1344.47C2329.58 1352.25 2324.45 1359.27 2318.44 1365.52C2312.54 1371.66 2304.99 1378.79 2295.79 1386.93L2287.83 1394.01H2343.91V1410.81H2257.93V1396.13L2270.67 1385.16ZM2361.63 1346.42C2361.63 1326.01 2365.05 1310.09 2371.89 1298.65C2378.85 1287.09 2390.76 1281.31 2407.63 1281.31C2424.49 1281.31 2436.35 1287.09 2443.19 1298.65C2450.15 1310.09 2453.63 1326.01 2453.63 1346.42C2453.63 1367.06 2450.15 1383.21 2443.19 1394.89C2436.35 1406.45 2424.49 1412.23 2407.63 1412.23C2390.76 1412.23 2378.85 1406.45 2371.89 1394.89C2365.05 1383.21 2361.63 1367.06 2361.63 1346.42ZM2433.81 1346.42C2433.81 1336.86 2433.16 1328.78 2431.87 1322.18C2430.69 1315.57 2428.21 1310.21 2424.43 1306.08C2420.66 1301.83 2415.06 1299.71 2407.63 1299.71C2400.2 1299.71 2394.59 1301.83 2390.82 1306.08C2387.05 1310.21 2384.51 1315.57 2383.21 1322.18C2382.03 1328.78 2381.44 1336.86 2381.44 1346.42C2381.44 1356.32 2382.03 1364.64 2383.21 1371.36C2384.39 1378.08 2386.87 1383.51 2390.64 1387.64C2394.54 1391.76 2400.2 1393.83 2407.63 1393.83C2415.06 1393.83 2420.66 1391.76 2424.43 1387.64C2428.33 1383.51 2430.86 1378.08 2432.04 1371.36C2433.22 1364.64 2433.81 1356.32 2433.81 1346.42ZM2516.19 1363.93L2561.12 1412.58H2533.88L2497.79 1370.65V1412.58H2477.62V1281.66H2497.79V1357.74L2533.17 1315.1H2561.12L2516.19 1363.93Z" fill="#D35C39"/>
<path d="M2029.71 786.86V867.9H2016.42V832.453H1978.29V867.9H1964.99V786.86H1978.29V821.609H2016.42V786.86H2029.71ZM2060.5 786.86V867.9H2047.21V786.86H2060.5ZM2104.66 868.717C2099.21 868.717 2094.32 867.784 2089.96 865.918C2085.61 863.975 2082.19 861.254 2079.7 857.756C2077.22 854.258 2075.97 850.177 2075.97 845.512H2090.2C2090.51 849.011 2091.87 851.887 2094.28 854.141C2096.77 856.395 2100.23 857.523 2104.66 857.523C2109.24 857.523 2112.82 856.434 2115.38 854.258C2117.95 852.003 2119.23 849.127 2119.23 845.629C2119.23 842.908 2118.42 840.693 2116.78 838.983C2115.23 837.272 2113.25 835.951 2110.84 835.018C2108.5 834.085 2105.24 833.075 2101.04 831.986C2095.76 830.587 2091.44 829.188 2088.1 827.789C2084.83 826.312 2082.04 824.057 2079.7 821.026C2077.37 817.994 2076.21 813.952 2076.21 808.899C2076.21 804.235 2077.37 800.153 2079.7 796.655C2082.04 793.157 2085.3 790.475 2089.5 788.61C2093.7 786.744 2098.55 785.811 2104.07 785.811C2111.92 785.811 2118.34 787.793 2123.31 791.758C2128.37 795.645 2131.16 801.008 2131.71 807.849H2117.02C2116.78 804.895 2115.38 802.369 2112.82 800.27C2110.25 798.171 2106.87 797.122 2102.67 797.122C2098.87 797.122 2095.76 798.093 2093.35 800.037C2090.94 801.98 2089.73 804.779 2089.73 808.432C2089.73 810.92 2090.47 812.98 2091.95 814.612C2093.5 816.167 2095.44 817.411 2097.78 818.344C2100.11 819.276 2103.3 820.287 2107.34 821.375C2112.7 822.852 2117.06 824.329 2120.4 825.806C2123.82 827.283 2126.69 829.576 2129.03 832.686C2131.44 835.718 2132.64 839.799 2132.64 844.929C2132.64 849.049 2131.51 852.936 2129.26 856.59C2127.08 860.243 2123.86 863.197 2119.58 865.452C2115.38 867.628 2110.41 868.717 2104.66 868.717ZM2185.29 868.717C2177.75 868.717 2170.79 866.968 2164.42 863.469C2158.12 859.894 2153.11 854.957 2149.38 848.661C2145.72 842.286 2143.9 835.135 2143.9 827.206C2143.9 819.276 2145.72 812.164 2149.38 805.867C2153.11 799.57 2158.12 794.673 2164.42 791.175C2170.79 787.599 2177.75 785.811 2185.29 785.811C2192.91 785.811 2199.87 787.599 2206.16 791.175C2212.54 794.673 2217.55 799.57 2221.2 805.867C2224.86 812.164 2226.68 819.276 2226.68 827.206C2226.68 835.135 2224.86 842.286 2221.2 848.661C2217.55 854.957 2212.54 859.894 2206.16 863.469C2199.87 866.968 2192.91 868.717 2185.29 868.717ZM2185.29 857.173C2190.65 857.173 2195.43 855.968 2199.63 853.558C2203.83 851.071 2207.1 847.572 2209.43 843.064C2211.84 838.477 2213.04 833.191 2213.04 827.206C2213.04 821.22 2211.84 815.973 2209.43 811.464C2207.1 806.955 2203.83 803.496 2199.63 801.086C2195.43 798.676 2190.65 797.471 2185.29 797.471C2179.93 797.471 2175.15 798.676 2170.95 801.086C2166.75 803.496 2163.45 806.955 2161.04 811.464C2158.7 815.973 2157.54 821.22 2157.54 827.206C2157.54 833.191 2158.7 838.477 2161.04 843.064C2163.45 847.572 2166.75 851.071 2170.95 853.558C2175.15 855.968 2179.93 857.173 2185.29 857.173ZM2284.42 867.9L2253.06 831.636V867.9H2239.77V786.86H2253.06V823.824L2284.54 786.86H2301.22L2266 827.439L2301.8 867.9H2284.42ZM2362.41 851.343H2328.48L2322.65 867.9H2308.77L2337.81 786.744H2353.2L2382.23 867.9H2368.24L2362.41 851.343ZM2358.68 840.498L2345.5 802.835L2332.21 840.498H2358.68ZM2434.58 842.348C2445.13 833.226 2453.43 825.753 2459.48 819.928C2465.63 813.993 2470.74 807.839 2474.81 801.464C2478.87 795.09 2480.91 788.715 2480.91 782.341C2480.91 775.747 2479.31 770.581 2476.13 766.845C2473.05 763.108 2468.16 761.24 2461.45 761.24C2454.97 761.24 2449.91 763.328 2446.29 767.504C2442.77 771.571 2440.9 777.066 2440.68 783.99H2422.55C2422.88 771.461 2426.62 761.899 2433.76 755.305C2441.01 748.601 2450.19 745.249 2461.29 745.249C2473.27 745.249 2482.61 748.546 2489.32 755.14C2496.13 761.734 2499.54 770.527 2499.54 781.517C2499.54 789.43 2497.5 797.068 2493.44 804.432C2489.48 811.685 2484.7 818.224 2479.09 824.049C2473.6 829.764 2466.57 836.413 2457.99 843.997L2450.57 850.591H2502.83V866.252H2422.71V852.569L2434.58 842.348ZM2596.82 763.877H2541.6V796.683C2543.91 793.606 2547.31 791.023 2551.82 788.935C2556.44 786.847 2561.33 785.803 2566.49 785.803C2575.72 785.803 2583.2 787.781 2588.91 791.738C2594.74 795.694 2598.86 800.695 2601.28 806.739C2603.8 812.784 2605.07 819.159 2605.07 825.863C2605.07 833.995 2603.47 841.249 2600.29 847.623C2597.21 853.888 2592.54 858.833 2586.27 862.46C2580.12 866.087 2572.54 867.9 2563.52 867.9C2551.54 867.9 2541.93 864.933 2534.67 858.998C2527.42 853.064 2523.08 845.205 2521.65 835.424H2539.95C2541.16 840.59 2543.85 844.711 2548.03 847.788C2552.2 850.756 2557.42 852.239 2563.69 852.239C2571.49 852.239 2577.32 849.876 2581.16 845.151C2585.12 840.425 2587.1 834.16 2587.1 826.357C2587.1 818.444 2585.12 812.399 2581.16 808.223C2577.21 803.937 2571.38 801.794 2563.69 801.794C2558.3 801.794 2553.74 803.168 2550.01 805.915C2546.38 808.553 2543.74 812.18 2542.09 816.796H2524.29V747.392H2596.82V763.877ZM2663.04 822.565L2704.91 867.9H2679.53L2645.9 828.83V867.9H2627.1V745.908H2645.9V816.796L2678.87 777.066H2704.91L2663.04 822.565Z" fill="#D35C39"/>
<path d="M267.03 1571.56H302.133V1530.27H318.136V1571.56H354.788V1525.1H370.791V1591.18H251.027V1525.1H267.03V1571.56ZM371.996 1461.54C371.996 1469.57 370.619 1476.79 367.866 1483.22C364.998 1489.64 360.983 1494.69 355.82 1498.36C350.658 1502.03 344.636 1503.87 337.753 1503.87V1482.87C342.915 1482.42 347.159 1480.41 350.486 1476.85C353.813 1473.18 355.476 1468.08 355.476 1461.54C355.476 1454.77 353.87 1449.49 350.658 1445.71C347.331 1441.92 343.087 1440.03 337.925 1440.03C333.91 1440.03 330.64 1441.23 328.116 1443.64C325.593 1445.94 323.642 1448.86 322.266 1452.42C320.889 1455.86 319.398 1460.68 317.792 1466.87C315.727 1474.67 313.662 1481.04 311.597 1485.97C309.418 1490.79 306.091 1494.92 301.617 1498.36C297.143 1501.8 291.178 1503.52 283.721 1503.52C276.838 1503.52 270.815 1501.8 265.653 1498.36C260.491 1494.92 256.533 1490.1 253.78 1483.91C251.027 1477.71 249.65 1470.54 249.65 1462.4C249.65 1450.81 252.575 1441.35 258.426 1434C264.162 1426.55 272.077 1422.42 282.172 1421.62V1443.3C277.813 1443.64 274.085 1445.71 270.988 1449.49C267.89 1453.28 266.341 1458.27 266.341 1464.46C266.341 1470.08 267.775 1474.67 270.643 1478.23C273.511 1481.78 277.641 1483.56 283.033 1483.56C286.704 1483.56 289.744 1482.47 292.153 1480.29C294.447 1478 296.283 1475.13 297.659 1471.69C299.036 1468.25 300.527 1463.54 302.133 1457.58C304.313 1449.66 306.492 1443.24 308.672 1438.31C310.852 1433.26 314.236 1429.01 318.824 1425.57C323.298 1422.02 329.321 1420.24 336.892 1420.24C342.972 1420.24 348.708 1421.9 354.1 1425.23C359.491 1428.44 363.851 1433.2 367.177 1439.51C370.39 1445.71 371.996 1453.05 371.996 1461.54ZM286.818 1313.46C292.898 1313.46 298.634 1314.9 304.026 1317.77C309.418 1320.63 313.834 1325.22 317.276 1331.53C320.602 1337.84 322.266 1345.93 322.266 1355.79V1377.48H370.791V1397.09H251.199V1355.79C251.199 1346.62 252.805 1338.87 256.017 1332.56C259.114 1326.14 263.359 1321.38 268.751 1318.28C274.142 1315.07 280.165 1313.46 286.818 1313.46ZM306.263 1355.79C306.263 1348.34 304.6 1342.77 301.273 1339.1C297.831 1335.43 293.013 1333.6 286.818 1333.6C273.741 1333.6 267.202 1341 267.202 1355.79V1377.48H306.263V1355.79ZM267.03 1275.14H302.133V1233.84H318.136V1275.14H354.788V1228.68H370.791V1294.75H251.027V1228.68H267.03V1275.14ZM229.862 1244.85H244.316L225.56 1282.88H208.868L229.862 1244.85ZM310.737 1211.05C299.036 1211.05 288.539 1208.36 279.247 1202.97C269.955 1197.46 262.728 1190.06 257.566 1180.77C252.289 1171.36 249.65 1161.1 249.65 1149.97C249.65 1137.23 252.805 1125.93 259.114 1116.07C265.309 1106.09 274.142 1098.86 285.614 1094.39V1117.96C279.304 1121.06 274.601 1125.36 271.504 1130.87C268.406 1136.37 266.858 1142.74 266.858 1149.97C266.858 1157.88 268.636 1164.94 272.192 1171.13C275.748 1177.33 280.853 1182.2 287.507 1185.76C294.16 1189.2 301.904 1190.92 310.737 1190.92C319.57 1190.92 327.313 1189.2 333.967 1185.76C340.621 1182.2 345.783 1177.33 349.454 1171.13C353.01 1164.94 354.788 1157.88 354.788 1149.97C354.788 1142.74 353.239 1136.37 350.142 1130.87C347.045 1125.36 342.341 1121.06 336.032 1117.96V1094.39C347.504 1098.86 356.337 1106.09 362.531 1116.07C368.726 1125.93 371.823 1137.23 371.823 1149.97C371.823 1161.21 369.242 1171.48 364.08 1180.77C358.803 1190.06 351.519 1197.46 342.227 1202.97C332.935 1208.36 322.438 1211.05 310.737 1211.05ZM267.03 1051.81H302.133L302.133 1010.51H318.136L318.136 1051.81H354.788V1005.35H370.791V1071.43H251.027V1005.35H267.03L267.03 1051.81ZM245.32 834.618C238.449 836.261 233.295 839.249 229.86 843.581C226.424 847.912 224.707 853.962 224.707 861.729C224.707 873.529 229.262 882.342 238.374 888.168C247.336 893.993 262.273 897.055 283.185 897.354C276.613 893.47 271.534 887.794 267.949 880.326C264.364 872.857 262.572 864.791 262.572 856.128C262.572 846.269 264.738 837.606 269.07 830.137C273.252 822.519 279.376 816.619 287.442 812.437C295.508 808.105 305.143 805.939 316.345 805.939C326.801 805.939 336.137 808.03 344.352 812.213C352.568 816.246 359.065 822.295 363.845 830.361C368.476 838.427 370.791 848.136 370.791 859.488C370.791 874.874 367.43 886.973 360.709 895.786C353.837 904.449 344.203 910.573 331.805 914.158C319.408 917.594 303.948 919.311 285.426 919.311C230.756 919.311 203.421 900.043 203.421 861.505C203.421 846.568 207.454 834.842 215.52 826.328C223.586 817.665 233.519 812.586 245.32 811.092V834.618ZM284.081 861.729C284.081 870.841 286.845 878.608 292.371 885.031C297.749 891.304 305.591 894.441 315.897 894.441C326.204 894.441 334.419 891.528 340.543 885.703C346.518 879.728 349.506 871.438 349.506 860.833C349.506 851.422 346.593 844.029 340.768 838.651C334.942 833.125 327.175 830.361 317.466 830.361C307.309 830.361 299.243 833.05 293.268 838.427C287.143 843.655 284.081 851.422 284.081 861.729ZM286.994 778.694C261.153 778.694 240.988 774.362 226.499 765.698C211.861 756.886 204.542 741.799 204.542 720.439C204.542 699.079 211.861 684.067 226.499 675.404C240.988 666.591 261.153 662.185 286.994 662.185C313.134 662.185 333.598 666.591 348.385 675.404C363.024 684.067 370.343 699.079 370.343 720.439C370.343 741.799 363.024 756.886 348.385 765.698C333.598 774.362 313.134 778.694 286.994 778.694ZM286.994 687.279C274.895 687.279 264.663 688.1 256.298 689.743C247.934 691.237 241.137 694.374 235.909 699.154C230.532 703.934 227.843 711.029 227.843 720.439C227.843 729.849 230.532 736.945 235.909 741.724C241.137 746.504 247.934 749.716 256.298 751.359C264.663 752.853 274.895 753.599 286.994 753.599C299.541 753.599 310.072 752.853 318.586 751.359C327.1 749.865 333.971 746.728 339.199 741.948C344.427 737.019 347.041 729.849 347.041 720.439C347.041 711.029 344.427 703.934 339.199 699.154C333.971 694.225 327.1 691.013 318.586 689.519C310.072 688.026 299.541 687.279 286.994 687.279ZM309.176 582.953L370.791 526.043V560.547L317.69 606.255H370.791V631.797H204.99V606.255H301.334L247.336 561.443V526.043L309.176 582.953Z" fill="#D35C39"/>
<path d="M1647.81 380.298C1628.32 370.558 1618.58 355.197 1618.58 334.217C1618.58 324.101 1621.11 314.829 1626.17 306.399C1631.23 297.97 1638.81 291.32 1648.93 286.449C1659.04 281.392 1671.41 278.863 1686.02 278.863C1700.44 278.863 1712.71 281.392 1722.83 286.449C1733.13 291.32 1740.81 297.97 1745.87 306.399C1750.93 314.829 1753.46 324.101 1753.46 334.217C1753.46 344.707 1750.74 353.979 1745.31 362.034C1740.06 369.902 1733.04 375.99 1724.23 380.298C1734.91 384.232 1743.34 390.695 1749.52 399.686C1755.7 408.49 1758.79 418.887 1758.79 430.876C1758.79 443.052 1755.7 453.823 1749.52 463.189C1743.34 472.555 1734.72 479.767 1723.67 484.825C1712.62 489.882 1700.07 492.411 1686.02 492.411C1671.97 492.411 1659.42 489.882 1648.37 484.825C1637.5 479.767 1628.98 472.555 1622.8 463.189C1616.62 453.823 1613.53 443.052 1613.53 430.876C1613.53 418.7 1616.62 408.209 1622.8 399.405C1628.98 390.601 1637.32 384.232 1647.81 380.298ZM1722.83 338.151C1722.83 327.661 1719.55 319.606 1712.99 313.986C1706.44 308.366 1697.45 305.556 1686.02 305.556C1674.78 305.556 1665.88 308.366 1659.33 313.986C1652.77 319.606 1649.49 327.754 1649.49 338.432C1649.49 347.798 1652.86 355.478 1659.61 361.472C1666.54 367.279 1675.34 370.183 1686.02 370.183C1696.7 370.183 1705.5 367.186 1712.43 361.191C1719.36 355.197 1722.83 347.517 1722.83 338.151ZM1686.02 394.348C1673.66 394.348 1663.54 397.438 1655.67 403.62C1647.99 409.614 1644.15 418.325 1644.15 429.752C1644.15 440.429 1647.9 449.14 1655.39 455.883C1662.88 462.44 1673.09 465.718 1686.02 465.718C1698.76 465.718 1708.78 462.346 1716.08 455.602C1723.58 448.859 1727.32 440.242 1727.32 429.752C1727.32 418.512 1723.48 409.802 1715.8 403.62C1708.31 397.438 1698.38 394.348 1686.02 394.348ZM1792.43 382.265C1792.43 349.858 1797.86 324.57 1808.72 306.399C1819.78 288.042 1838.7 278.863 1865.48 278.863C1892.27 278.863 1911.1 288.042 1921.96 306.399C1933.01 324.57 1938.54 349.858 1938.54 382.265C1938.54 415.047 1933.01 440.71 1921.96 459.255C1911.1 477.613 1892.27 486.792 1865.48 486.792C1838.7 486.792 1819.78 477.613 1808.72 459.255C1797.86 440.71 1792.43 415.047 1792.43 382.265ZM1907.07 382.265C1907.07 367.092 1906.04 354.26 1903.98 343.77C1902.1 333.28 1898.17 324.757 1892.18 318.201C1886.18 311.457 1877.28 308.085 1865.48 308.085C1853.68 308.085 1844.78 311.457 1838.79 318.201C1832.79 324.757 1828.77 333.28 1826.71 343.77C1824.83 354.26 1823.9 367.092 1823.9 382.265C1823.9 398 1824.83 411.207 1826.71 421.884C1828.58 432.561 1832.51 441.178 1838.51 447.735C1844.69 454.291 1853.68 457.569 1865.48 457.569C1877.28 457.569 1886.18 454.291 1892.18 447.735C1898.36 441.178 1902.39 432.561 1904.26 421.884C1906.13 411.207 1907.07 398 1907.07 382.265ZM2037.9 410.083L2109.27 487.354H2066L2008.68 420.76V487.354H1976.65V279.425H2008.68V400.248L2064.88 332.531H2109.27L2037.9 410.083Z" fill="#D35C39"/>
</svg>
