<svg
  width="75"
  height="75"
  viewBox="0 0 75 75"
  fill="none"
  xmlns="http://www.w3.org/2000/svg"
>
  <g clip-path="url(#clip0_301_2)">
  <path
      fill-rule="evenodd"
      clip-rule="evenodd"
      d="M37.5 0C16.8031 0 0 16.8031 0 37.5C0 58.1969 16.8031 75 37.5 75C58.1969 75 75 58.1969 75 37.5C75 16.8031 58.1969 0 37.5 0ZM37.5 3.125C18.5281 3.125 3.125 18.5281 3.125 37.5C3.125 56.4719 18.5281 71.875 37.5 71.875C56.4719 71.875 71.875 56.4719 71.875 37.5C71.875 18.5281 56.4719 3.125 37.5 3.125ZM52.5875 39.0625L38.1875 50.8219L40.3094 53.125L59.375 37.5L40.275 21.875L38.1938 24.2281L52.5813 35.9375H15.625V39.0625H52.5875Z"
      fill="white"
    />
  </g>
  <defs>
  <clipPath id="clip0_301_2">
  <rect width="75" height="75" fill="white" />
  </clipPath>
  </defs>
  </svg>
